<?xml version="1.0" encoding="UTF-8"?>
<!DOCTYPE svg PUBLIC "-//W3C//DTD SVG 1.1//EN" "http://www.w3.org/Graphics/SVG/1.1/DTD/svg11.dtd">
<!-- Creator: CorelDRAW 2020 (64 Bit) -->
<svg xmlns="http://www.w3.org/2000/svg" xml:space="preserve" width="169.333mm" height="135.467mm" version="1.1" style="shape-rendering:geometricPrecision; text-rendering:geometricPrecision; image-rendering:optimizeQuality; fill-rule:evenodd; clip-rule:evenodd"
viewBox="0 0 16933.32 13546.66"
 xmlns:xlink="http://www.w3.org/1999/xlink"
 xmlns:xodm="http://www.corel.com/coreldraw/odm/2003">
 <defs>
  <style type="text/css">
   <![CDATA[
    .str0 {stroke:#515B60;stroke-width:20;stroke-miterlimit:22.9256}
    .str2 {stroke:#6594FF;stroke-width:20;stroke-miterlimit:22.9256}
    .str1 {stroke:#A0BCFF;stroke-width:20;stroke-miterlimit:22.9256}
    .fil11 {fill:black}
    .fil47 {fill:#191816}
    .fil40 {fill:#1A1A19}
    .fil41 {fill:#1B1C1A}
    .fil54 {fill:#1DBBA2}
    .fil59 {fill:#1DC5AA}
    .fil18 {fill:#263238}
    .fil27 {fill:#273238}
    .fil14 {fill:#3261CB}
    .fil17 {fill:#3464D0}
    .fil51 {fill:#38E5CC}
    .fil55 {fill:#39C3AC}
    .fil8 {fill:#407BFF}
    .fil15 {fill:#41494D}
    .fil32 {fill:#467FFF}
    .fil38 {fill:#4C83FF}
    .fil3 {fill:#505A5F}
    .fil2 {fill:#515B60}
    .fil16 {fill:#6594FF}
    .fil4 {fill:#687074}
    .fil25 {fill:#85AAFF}
    .fil65 {fill:#8B8988}
    .fil29 {fill:#8DB0FF}
    .fil39 {fill:#8DFCEC}
    .fil23 {fill:#90B2FF}
    .fil64 {fill:#938D8C}
    .fil5 {fill:#93999C}
    .fil28 {fill:#94B4FF}
    .fil31 {fill:#96B6FF}
    .fil19 {fill:#989B9D}
    .fil34 {fill:#9AB9FF}
    .fil44 {fill:#9E7452}
    .fil26 {fill:#9EADCC}
    .fil33 {fill:#9EBBFF}
    .fil21 {fill:#9FBDFE}
    .fil1 {fill:#A0BCFF}
    .fil50 {fill:#A79A83}
    .fil22 {fill:#AEB7CC}
    .fil10 {fill:#BCC2CC}
    .fil12 {fill:#BEC1C4}
    .fil35 {fill:#C1D4FF}
    .fil7 {fill:#C6D8FF}
    .fil43 {fill:#C75633}
    .fil46 {fill:#D28772}
    .fil9 {fill:#D9E4FF}
    .fil45 {fill:#DB4723}
    .fil57 {fill:#DBD2D3}
    .fil13 {fill:#E0E0E0}
    .fil37 {fill:#E3EBFF}
    .fil36 {fill:#E5EEFF}
    .fil49 {fill:#E77E69}
    .fil58 {fill:#E7918D}
    .fil6 {fill:#EBEBEB}
    .fil0 {fill:#EBF1FF}
    .fil61 {fill:#F4EBEC}
    .fil30 {fill:#F5F8FF}
    .fil60 {fill:#F7F6F6}
    .fil56 {fill:#F8EFF0}
    .fil42 {fill:#FAC9C9}
    .fil24 {fill:#FAFAFA}
    .fil62 {fill:#FAFBFB}
    .fil53 {fill:#FBCACA}
    .fil48 {fill:#FDA4A4}
    .fil63 {fill:#FDBCBC}
    .fil52 {fill:#FDFEFE}
    .fil20 {fill:#FEFFFF}
   ]]>
  </style>
 </defs>
 <g id="Camada_x0020_1">
  <metadata id="CorelCorpID_0Corel-Layer"/>
  <g id="_1767057077024">
   <path class="fil0" d="M5557.65 10348.8l794.12 0.15 0 164.07 -791.91 0.35 -2.21 -164.57zm-187.15 76.41c-36.88,120.99 -205.37,88.51 -336.43,88.51 -77.49,0 -366.86,9.26 -419.24,-5.82 -122.4,-35.21 -90.39,-195.74 -90.39,-336.82 0,-537.95 -54.89,-509.53 345.65,-509.53 539.71,0 506.68,-53.33 506.68,345.57 0,75.39 8.81,368.62 -6.27,418.09zm177.05 -305.58l973.83 0 0.32 133.44 -2.54 31.11 -970.2 0.02 -1.24 -31.15 -0.17 -133.42zm-1773.15 -228.76l311.46 -0.43 0.4 280.66 -2.36 30.81 -309.5 -1.05 0 -309.99zm1772.13 -0.43l709.83 0 0.27 133.09 -0.87 31.4 -707.02 0.01 -1.02 -31.42 -1.19 -133.08zm3590.66 -327.18c72.52,-21.61 1999.17,-8.21 2251.35,-8.74 122.15,-0.26 205.05,44.14 215.77,165.32 11.63,131.49 -19.93,225.03 -123.53,256.14 -74.08,22.24 -2002.65,8.04 -2256.93,8.62 -61.66,0.14 -112.22,-9.08 -152.49,-38.31 -81.74,-59.33 -124.39,-326.35 65.83,-383.03zm-3590.66 98.29l3201.9 -0.79 28.67 4.76 0 160.5 -3228.87 0.05 -0.51 -32.09 -1.19 -132.43zm10.05 -599.44l11.78 -5.46c18.7,-4.63 -5.01,-0.48 14.53,-2.55l774 0.34 -5.1 171.55c-35.64,0 -759.41,13.38 -793.16,-8.6l-2.05 -155.28zm-927.74 -686.76c51.46,-13.25 336.59,-3.74 413.43,-3.74 389.8,0 334.5,-25.6 334.5,512.43 0,396.61 26.25,339.72 -514.89,339.72 -397.58,0 -337.44,22.61 -337.44,-520.07 0,-149.75 -35.26,-292.36 104.4,-328.34zm4357.27 554.26l1738.5 0 -2.3 112.45 -1736.46 0 0.26 -112.45zm-3441.1 -104.14l979.4 3.11 0.02 168.61 -30.89 1.02 -434.57 -0.11 -483.77 0.38 -30.19 -2.25 0 -170.76zm-1774.37 -229.31l318.09 3.39 0 316.07 -319.15 0.2 1.06 -319.66zm5213.43 152.8l2072.74 0 -0.39 112.4 -2070.57 0 -1.78 -112.4zm-2727.11 -144.29l-0.3 156.42c-22.18,13.18 -51.03,8.19 -82.89,8.09 -139.14,-0.41 -553.82,6.75 -628.76,-2.48l0 -167.01c68.16,-10.41 494.21,-2.69 628.76,-3.08 15.05,-0.05 35.59,-1.33 49.8,-0.61l27.97 5.57c1.04,-1.79 3.61,2.06 5.42,3.1zm2731.2 -36.32l1496.16 -0.02 0.87 112.3 -1499.92 0.04 2.89 -112.32zm-3442.93 -200.33l3235.49 -0.02 0 171.44 -32.39 0.46 -3173.17 0.59 -29.93 -3.56 0 -168.91zm3449.08 19.68l1875.93 -0.02 0.99 112.32 -1885.92 0.01 9 -112.31zm-3431.87 -618.57l789.33 2.39c0,51.16 -7.64,112.32 5.27,162.04l-799.53 0.13 4.93 -164.56zm3809.49 -48.76l64.73 0 0.04 196.44 -32.47 2.48 -32.34 -3 0.04 -195.92zm85.55 73.37c0,-30.51 26.82,-21.95 58.28,-19.53l-1.76 137.45c-31.33,3.7 -56.52,12.04 -56.52,-19.54l0 -98.38zm760.63 120.85c67.96,-188.93 69.46,-178.5 136.31,-177.33l73.67 178.35 -58.31 0c-13.16,-31.47 0.97,-35.45 -46.95,-34.53 -43.1,0.82 -33.8,3.24 -47.44,34.74l-57.28 -1.23zm502.24 -190.48l52.56 0 -2.52 189.43 -87.67 0.79c-32.41,0.38 -53.61,-13.48 -63.24,-41.73 -26.03,-76.42 31.28,-107.51 94.6,-93.21l6.27 -55.28zm-180.44 0l49.1 0c10.91,39.2 8.73,147.29 2.05,189.43 -16.6,0 -35.27,-2.04 -49.97,-2.12 -25.65,-0.12 -14.05,3.03 -38.58,2.87 -102.74,-0.65 -91.31,-174.93 32.42,-132.84l4.98 -57.34zm-1541.45 16.39c253.43,-56.1 254.28,229.4 0,173.1l0 -173.1zm2050.73 151.62c-57.7,61.01 -171.47,-0.36 -133.98,-79.28 30.34,-63.89 157.08,-55.69 145.26,44.44l-90.19 0.98c23.19,24.54 -4.74,7.03 42.64,12.68 28.88,3.45 11.03,-1.44 36.27,21.18zm-1210.41 7.09c-30.52,12.82 -73.29,25.6 -109.18,3.79 -29.21,-17.76 -44.39,-55.39 -24.83,-95.17 27.99,-56.91 155.83,-51.11 143.26,49.45l-90.2 0.98c21.83,25.11 20.61,8.16 47.92,13.37 18.24,3.48 20.73,9.46 33.03,27.58zm-498.6 -7.09c-44.58,58.28 -175.35,6.35 -131.44,-80.31 30.47,-60.14 156.64,-60.74 144.22,45.44l-90.18 1.01c38.35,38.61 36.83,-18.43 77.4,33.86zm1460.08 -114.72c33.56,-5.02 24.71,-1.51 51.38,1.66l48.96 -6.77c-0.44,66.74 -7.15,35.3 -41.44,66.48l-4.69 76.02 -53.91 -1.24 -0.3 -136.15zm-904.03 -3.11c53.85,0 -14.54,12.15 72.58,-1.98 7.72,61.53 -3.42,39.89 -38.55,63.35l-3.38 78.93 -54.67 0.04 -1.57 -140.34 25.59 0zm1403.17 91.11c-154.85,-17.77 -51.5,-132.25 47.01,-79.86 -19.43,70.51 -24.22,4.66 -68.15,32.8 37.94,21.11 37.33,-1.47 75.32,32.84 0.21,76.53 -84.21,78.05 -130.05,49.13 17.97,-69.99 32.41,-0.79 75.87,-34.91zm-175.12 -4.44c-110.57,-39.8 -10.08,-120.88 75.57,-75.42 -14.42,69.53 -15.69,6.32 -65.07,32.8 29.56,15.7 38.2,5.9 72.23,30.78 2.53,75 -82.17,82.48 -129.01,51.19 8.29,-52.16 18.52,-24.28 76.87,-24.54l-30.59 -14.81zm-1485.39 52.58c-59.69,0 -55.74,10.93 -74.12,-42.41 -11.69,-33.95 -25.12,-61.5 -34.36,-97.84 95.74,0 45.87,16.65 87.1,71.75 1.73,-5.03 20.47,-54.79 20.74,-55.19 12.36,-17.31 8.75,-16.46 57.06,-16.56 -8.96,40.58 -40.01,109.22 -56.42,140.25zm392.85 -4.3l-53.46 -134.69 54.75 -1.87 26.08 71.34c1.44,-1.58 3.12,-3.91 3.92,-5.09 0.78,-1.17 2.82,-3.69 3.75,-5.15 1.19,-1.89 5.27,-8.63 6.45,-10.89l23.92 -49.59 42.96 0c1.72,32.99 -30.18,94.81 -44.29,129.83 -24.01,59.6 -41.62,68.32 -112.45,55.55 14.82,-75.03 14.62,-18.42 48.37,-49.44zm-514.28 -164.68c-73.89,64.07 -89.08,-81.24 -0.69,-29.86l0.69 29.86zm-3969.46 -204.54l973.31 3.84 -0.1 160.64 -973.52 0 0.31 -164.48zm-1773.6 -228.89l310.93 -0.33 0.53 32.07 -0.08 279.31 -281.65 0.6 -29.73 -3.55 0 -308.1zm1774.18 -0.35l707.61 0 -2.48 164.52 -706.07 0 0.94 -164.52zm6766.43 -682.15c-66.01,0.79 -68.92,-73.58 8.18,-63.5 19.25,32.27 21.66,38.2 -8.18,63.5zm-213.19 -62.48c28.23,32.89 15.61,50.36 -16.39,64.02 -24.46,-6.23 -28.62,-10.79 -37.38,-33.3 8.25,-28.32 17.34,-38.21 53.77,-30.72zm-8661.47 -189.56c154.12,-59.4 221.92,147.03 92.34,194.71 -104.36,38.41 -198.58,-49.56 -155.03,-146.85 16.2,-36.22 29.89,-35.22 62.69,-47.86zm186.56 -6.14c52.34,-5.48 138.79,-6.95 169.8,20.74 61,54.45 -14.91,124.51 -15.11,124.77 14.99,20.37 26.19,33.26 35.78,60.37 -135.76,0 -50.01,-38.51 -121.86,-53.26l0.02 49.26 -69.77 0.96 1.14 -202.84zm219.29 -2.06l166.31 -0.01 -4.42 53.23c-30.25,0 -73.75,-7.58 -93.26,11.31 15.34,20.62 52.02,12.33 88.15,12.33l-4.1 50.14c-37.19,0 -75.18,-12.11 -84.05,19.51 22.22,15.94 71.62,8.22 102.51,8.22l0.03 53.21 -172.26 0 1.09 -207.94zm-484.78 56.32l-60.26 0 -2.23 151.76 -67.88 0.92 -0.85 -151.72 -60.6 -6.08 1.2 -48.51 188.93 -0.7 1.69 54.33zm-265.93 90.19c-39.04,-31.17 -144.33,-17 -105.14,-108.28 22.23,-51.76 112.11,-44.51 167.11,-25.54l-18.48 50.78c-26.22,-7.17 -51.54,-18.21 -80.96,-7.14 2.99,10.74 -7.65,13.68 40.27,25.6 160.59,39.95 8.53,196.84 -114.19,105.5l14.54 -44.98c34.62,7.42 69.85,30.41 96.85,4.06zm8848.62 -226.96c-0.91,-2.19 -3.59,-1.53 -5.22,-2.58 10.41,-13.44 -22.78,-16.28 38.78,-18.4 15.16,-0.51 36.26,0.99 51.64,1.22l21.29 76.25 284.3 22.98 -21.94 145.43 -234.15 -0.18 -68.19 -218.08c-12.3,-0.58 -29.6,0.24 -40.38,-0.72l-26.13 -5.92zm1133.68 4972.87l0.4 -5038.65 -4633.27 2.89c-13.6,34.2 -6.87,81.19 -6.87,119.45 323.57,0 3387.59,-11.82 3429.61,6.44 8.86,41.14 4.5,88.01 4.55,131.16l-2.57 98.11c-6.01,22.35 -2.92,11.69 -10.37,20.64l-271.76 -3.02 -3149.46 4.12 0 479.63 339.05 2.99 0 161.78 -3229.32 0.06 -0.33 -79.13 -179.54 -2.75c19.51,60.03 17.97,648.14 -4.04,696.62 -43.93,96.8 -165.33,72.89 -288.8,72.89 -120.25,0 -240.54,-0.38 -360.77,0.04 -138.64,0.47 -190.71,-31.17 -190.01,-173.08 3.72,-745.37 -81.87,-683.16 405.85,-678.87l-1.88 -193.08 -245.95 -0.04 -1.51 -287.06 -532.2 3.08c0,-70.03 -9.74,-191.54 4.95,-254.09 50.91,-19.99 440.72,-6.44 528.4,-6.44l-1.01 -122.34 -1880.06 0 2.99 5038.65 10273.92 0z"/>
   <path class="fil1" d="M5345.65 5759.83l2213.79 0c510.75,0 508.4,752.79 0,752.79l-2205.6 0c-523.23,0 -510.53,-752.79 -8.19,-752.79zm-236.91 -951.58l865.54 2.7 -0.52 109.63 11.42 0 -875.43 0.02 -1.01 -112.35zm2032.34 -455.08l561.98 1.49 0.01 110.62 -564.66 0.3 2.67 -112.41zm-2032.19 0.05l1218.78 0 0.33 112.32 -1219.5 -0.64 0.39 -111.68zm-0.15 -301.18l1026.16 -0.02 -0.08 112.66 -994.16 0.13 -31.92 -0.81 0 -111.96zm-0.16 -277.4l745.36 -0.03 0.06 112.68 -713.34 0.13 -32.08 -0.79 0 -111.99zm1730.18 -872.21l142.78 1.23 0 477.02 -145.37 0.47 2.59 -478.72zm-1020.35 128.63c270.25,-72.52 359.8,283.29 120.48,346.53 -271.61,71.77 -382.55,-276.2 -120.48,-346.53zm324.83 -81.4l145.12 -0.57 0 98.37 71.72 2.06 0.03 102.54 -71.75 1.57 6.29 122.4 57.58 -5.94 32.45 97.75c-101.16,49.87 -241.44,9.91 -241.44,-115.64l0 -98.57c-28.51,-0.07 -29.99,4.71 -49.2,-8l0 -90.17c19.21,-12.71 20.69,-7.93 49.2,-8l0 -97.8zm577.98 115.84c66.6,56.95 59.58,208.78 48.82,315.6 -141.2,0 -131.92,10.22 -132.89,-36.82 -49.07,24.33 -45.08,56.2 -135.06,39.86 -45.27,-8.22 -83.02,-38.61 -91.55,-83.69 -26.32,-139.07 150.12,-127.05 214.39,-130.02 -22.57,-69.27 -105.25,-32.6 -155,-15.61l-41.29 -91.17c74.53,-53.3 221.34,-59.04 292.58,1.85zm1453.21 -1038.07l-0.05 1208.33c-1.32,-2.24 -2.53,-5.23 -3.17,-7.15 -11.01,-33.02 -4.98,-127.22 -4.98,-165 -36.89,0 -217.19,11.28 -223.88,-16.14l-5.7 -1019.63 237.78 -0.41zm-2901.31 902.24l416.69 -0.12 -0.06 117.5 -131.13 0 0.42 303.55 -2.49 30.74 -149.82 -2.35 -2.42 -331.78 -131.19 -1.23 0 -116.31zm-591.49 -881.45l-0.09 70.52 0.59 762.3 -0.23 425.58 -0.14 109.54 0.41 1328.03 -1.58 666.62 1.75 277.1 -1894.28 -2.56 0.25 17.93c60.38,-16.31 1783.49,-5.97 1893.06,-5.97l0.25 110.67 -0.59 298.79 -0.09 115.39 1.01 122.34 -1.15 257.45 1.51 287.06 245.95 0.04 3259.38 -0.2 0.68 -286.39 -0.32 -258.43 0.25 -121.71 -1.51 -115.55 0.45 -301.92 248.01 -1.56 -1.26 -100.01c45.56,-15.92 2083.01,-5.97 2315.01,-5.97 776.5,0 1553,0 2329.5,0l0 -9.43 -4645.35 2.74 -246.57 0.52 1.12 -280.15 0.49 -663.84 1.97 -2730.13 -3508.7 -2.43 0.22 33.63z"/>
   <path class="fil2 str0" d="M2312.22 11220.39c6.18,146.23 1,303.45 0.97,450.88 -0.01,73.26 -2.55,146.33 14.8,213.69 19.57,75.88 50.04,102.91 73.95,154.87 55.03,16.9 1701.35,13.88 1731.73,0.34l-3.77 -24.6 -0.26 -16.4c22.13,-153.44 169.1,-114.76 379.68,-114.76l6911.97 0c233.92,0 352.61,-39.41 343.37,155.76 27.22,12.17 1704.48,12.25 1731.87,0 103.32,-170.97 95.54,-196.91 88.78,-442.68l0.17 -16.4 0.19 -1123.09 -0.38 -147.56 -0.22 -180.35 -0.58 -16.39 1.6 -40.99 -1.12 -180.35 0 -98.38 0.26 -172.11c-23.8,-5.16 -7.58,-325.52 -7.54,-368.9l-475.6 0 0 -2893.83c0.01,-90.73 -8.31,-150.41 -8.2,-237.72l1.22 -664.52c-1.65,-60.94 -11.53,-48.96 -17.53,-52.3l0.43 8.15 0.44 275.13 0 9.43 -0.26 524.85 -0.4 5038.65 -32.75 8.67c-9.7,0.85 -30.41,-0.03 -41.14,-0.16 -27.37,-0.3 -54.76,-0.16 -82.15,-0.16l-9494.73 0c-207.99,0 -432.22,8 -638.13,-0.93l-0.58 -5564.95 -0.25 -17.93 7.61 -274.54 1884.92 0 1.58 -666.62c-527.7,0 -1055.41,0 -1583.12,0 -180.82,0 -387.98,-22.77 -542.24,48.1 -308.67,141.82 -244.89,484 -244.89,755.27l0 2377.34c0,259.84 -9.42,537.61 0.84,795.18l-0.84 57.39 1.09 352.5 0.12 204.94 0 65.58 -0.12 204.95 -1.12 508.26 -992.08 0c-120.68,0 -225.27,16.29 -297.92,-38.25 -80.06,-60.09 -71.05,-126.28 -71.04,-256.87l0 -8640.41c0,-223.14 -13.87,-144.08 57.39,-278.71 -18.64,6.74 -12.02,5.12 -23.71,17.27 -59.37,61.74 -41.89,164.87 -41.89,245.05 0,1177.95 -10.13,8774.45 3.43,8825.52 10.37,39.02 42.55,80.83 71.63,100.54 43.7,29.61 60.69,34.74 122.81,41.16l1171.41 1.09 0.3 1090.3z"/>
   <path class="fil3 str0" d="M8431.83 5410.88c168.47,-14.99 403.2,-1.72 578.88,-1.72l2910.74 0c155.43,0 1085.26,10.7 1156.13,-4.56 6,3.34 15.88,-8.64 17.53,52.3l-1.22 664.52c-0.11,87.31 8.21,146.99 8.2,237.72l0 2893.83 475.6 0c-0.04,43.38 -16.26,363.74 7.54,368.9 9.65,-188.93 0.66,-405.75 0.66,-598.47l0 -3656.19c0,-97.07 7.72,-209.4 -12.94,-290.37 -12.6,-49.35 -23.26,-74.09 -44.72,-111.05 -29.12,-50.18 -37.6,-52.93 -65.33,-88.73 -28.59,-13.45 -16.32,-13.19 -41.63,-33.68 -151.23,-122.48 -310.75,-77.16 -401.13,-97.3l-327.97 -2.04c-29.41,9.32 -283.26,14.05 -307.66,0.15l-3941.56 0c-25.77,49.98 -11.12,249.65 -11.12,327.91 0,112.93 0,225.85 0,338.78z"/>
   <path class="fil4" d="M1484.06 12392.66l191.77 152.31c12.87,10.07 19.85,15.09 32.89,24.48 9.92,7.14 9.41,6.17 19.25,13.58 1.92,1.44 7.65,5.98 9.27,7.28l8.93 7.69c58.43,10.4 106.91,69.17 292.78,93.54 121.83,15.97 5712.35,4.38 5881.26,4.38 1831.16,0 3662.33,0 5493.5,0 129.67,0 264.89,3.71 393.89,-0.64 144.54,-4.86 200.35,-47.28 311.24,-81.01l239.67 -178.73c23.77,-19.45 65.79,-46.71 80.1,-69.5 -251.79,16 -554.36,1.44 -811.72,1.44 -1881.96,0 -12137.88,-2.51 -12153.31,8.5 4.99,9.68 4.58,8.82 10.48,16.68z"/>
   <path class="fil5" d="M6702.62 12047.97l2492.65 0c-4.6,101.89 -65,160.32 -164.06,160.32l-2152.31 0c-108.08,0 -170.1,-52.32 -176.28,-160.32zm-5229.04 328.01c15.43,-11.01 10271.35,-8.5 12153.31,-8.5 257.36,0 559.93,14.56 811.72,-1.44l0 -325.87 -942.08 0c-27.39,12.25 -1704.65,12.17 -1731.87,0l-7630.99 0c-30.38,13.54 -1676.7,16.56 -1731.73,-0.34 -66.33,13.48 -805.48,4.36 -938.71,4.36l-4.14 291.65c3.27,44.15 -6.24,23.18 14.49,40.14z"/>
   <path class="fil6" d="M2590.7 3172.94c123.22,-0.09 469.28,-6.74 567.91,3.85 11.1,42.9 10.35,67.76 -43.17,67.76 -125.12,0.13 -468.33,8.49 -569.01,-5.49 -8.07,-51.14 -9.52,-66.12 44.27,-66.12zm-46.62 -549.13c8.6,-30.31 42.53,-24.67 79.02,-24.41 72.38,0.51 152.22,-20.41 125.67,65.69l-149.88 5.07c-30.46,0 -66.51,-5.13 -54.81,-46.35zm554.97 -199.58c59.02,0 68.56,4.49 59.95,62.98 -90.18,11.14 -556.53,17.37 -611.48,-1.79 -9.12,-43.52 0.21,-61.19 51.37,-61.19l500.16 0zm1582.71 991.93l0.14 -109.54c-96.81,14.37 -294.49,2.96 -402.16,2.96 -193.81,0 -169.96,21.29 -169.96,-221.34 0,-214.73 -34.83,-210.18 178.16,-210.17 118.54,0.01 280.92,-9.23 394.19,2.97l-0.59 -762.3c-136.92,0 -458.62,15.79 -569.59,-4.94 -28.92,-68.5 12.44,-66.43 77.36,-65.78l492.32 0.2 -0.22 -33.63 0.04 -131.41 -2115.36 0c-81.06,-0.1 -115.92,-4.55 -161.97,34.8 -72.95,62.36 -51.21,205.69 -51.21,334.09l0 778.8c0,420.63 -18.47,385.29 385.37,385.29 647.82,0 1295.66,0 1943.48,0z"/>
   <path class="fil7" d="M8435.2 5803.29c50.11,14.43 858.83,4.76 1026.47,4.69 134.61,-0.06 199.58,1.45 199.53,149.45 -0.06,147.91 -60.21,149.59 -199.53,149.35 -133.71,-0.24 -968.16,-7.16 -1027.26,3.18l-1.92 115.16 12.43 -0.07 4633.27 -2.89 0.26 -524.85c-776.5,0 -1553,0 -2329.5,0 -232,0 -2269.45,-9.95 -2315.01,5.97l1.26 100.01z"/>
   <path class="fil8" d="M7138.21 5982.01l101.49 0 0 147.59c0,51.69 11.39,78.4 66.55,72.71 33.51,-18.03 22.57,-170.96 22.59,-220.3l98.41 1.05c0,122.2 26.71,252.35 -82.22,292.64 -50.02,18.49 -116.28,13.15 -155.74,-13.69 -43.17,-29.35 -51.13,-78.53 -51.13,-140.6l0.05 -139.4zm-1623.53 0l100.37 1.05 1.11 104.49 91.9 0 0.36 -104.77 100.49 -0.77 0.06 298.27 -100.53 -2.06 0 -107.6 -93.23 0 0.03 108.04 -100.54 1.62 -0.02 -298.27zm1396.01 -4.08c227.4,-30.34 262.37,267.63 64.46,304.82 -234.6,44.09 -286.38,-275.2 -64.46,-304.82zm625.91 86.56l-88.14 -4.28c-5.66,-24.91 -10.37,-55.6 3.91,-78.42l273.14 0.22 0 77.92c-108.05,0 -88.15,-47.47 -88.17,220.71l-100.46 -2.42 -0.28 -213.73zm-1679.02 -82.48l243.46 0 0 75.9c-155.11,0 -141.21,-16.64 -144.53,34.78l124.11 -0.15 2.98 72.71 -126.44 2.25 -0.73 35.34 149.24 3.6 0.48 73.29 -248.07 0.55 -0.5 -298.27zm572.95 245.96c-32.4,53.23 -118.61,74.25 -197.4,47.12 -58,-19.98 -102.02,-73.79 -98.17,-152.1 7.75,-157.46 203.18,-190.89 298.12,-89.73 -17.02,16.85 -40.91,39.96 -53.29,54.35 -34,-9.88 -43.51,-36.82 -88.08,-28.32 -92.95,17.73 -76.91,210.52 80.27,114.72l58.55 53.96zm-949.07 0c-91.81,110.53 -296.43,62.46 -295.13,-98.37 1.17,-144.97 180.52,-211.4 296.68,-98.4 -14.2,17.85 -37.65,40.31 -53.29,58.48 -37.02,-11.65 -36.36,-40.26 -89.48,-30.55 -71.02,12.98 -70.97,128.79 -0.85,143.21 42.8,8.8 66.5,-17.73 87.24,-30.74 22.15,28.82 34.99,22.13 54.83,56.37zm982.31 -244.81l98.48 -1.15 0.99 103.53c28.58,-34.13 68.78,-65.32 93.26,-103.53l109.7 0c-14.93,27.68 -84.48,97.29 -112.25,131.2 33.53,56.83 96.52,113.74 118.39,166.87l-118.92 -0.83c-6.85,-18.68 -48.02,-83.49 -76.85,-91.22 -23.87,45.92 -4.15,49.89 -21.47,92.41l-90.86 -1.18 -0.47 -296.1zm-1118.12 -223.33c-502.34,0 -515.04,752.79 8.19,752.79l2205.6 0c508.4,0 510.75,-752.79 0,-752.79l-2213.79 0z"/>
   <path class="fil2 str0" d="M7939.13 1742.3c122.94,-43.15 192.64,150.21 66.81,194.13 -129.22,45.09 -202.73,-146.42 -66.81,-194.13zm-6922.69 -851.04c85.91,-20.02 5.89,-32.91 196.78,-32.8l5362.31 0c153.31,0 844.33,-17.28 928.02,6.69 144.2,41.31 137.88,152.81 137.88,329.42 0,155.76 0,311.52 0,467.27l-2959.92 0 -0.06 221.34 -0.04 131.41 3508.7 2.43 0.57 -68.26 0.11 -286.92 -147.59 0c0,-111.01 -11.19,-597.57 13.11,-683.69 15.11,-53.57 68.91,-100.15 124,-113.76 72.79,-17.99 2770.92,-5.93 2806.42,-5.93l3509.3 -0.02c39.27,-0.15 78.78,-0.26 107.1,7.7 45.1,12.67 50.51,33.25 81.46,41.51 -35.47,-52.97 -84.1,-57.76 -172.15,-57.41 -1952.14,7.75 -3917.28,0.03 -5870.7,0.03 -87.24,0 -412.67,-10.68 -470.84,4.7 -166.84,44.1 -135.9,225.03 -135.9,331.41 0,158.49 0,316.98 0,475.46l-385.36 0c0,-84.35 9.14,-631.2 -9.51,-687.31 -16.21,-48.76 -66.84,-101.39 -121.16,-116.59 -63.08,-17.65 -797.13,-7.67 -927.04,-7.67l-5378.71 0c-83.68,-0.01 -160.75,-8.19 -196.78,40.99z"/>
   <path class="fil8" d="M12540.48 5477.88c101.82,-34.22 141.69,123.75 51.06,150.41 -112.62,33.15 -146.72,-118.27 -51.06,-150.41zm303.35 4.07c100.27,-43.59 148.18,112.85 57.74,144.6 -98.52,34.6 -159.79,-100.21 -57.74,-144.6zm-614.93 1.04c102.88,-44.31 149.08,102.86 64.56,141.79 -68.31,31.48 -137.28,-34.44 -107.05,-106.75 13.23,-31.65 15.66,-23.49 42.49,-35.04zm-3795.8 207.63l4645.35 -2.74 -0.44 -275.13 -4644.54 3.66 -0.37 274.21z"/>
   <path class="fil8" d="M11152.74 9721.19c2.23,-51.69 -8.17,-43.75 47.2,-44.05l0 153.74c-49.39,-0.33 -105.16,9.92 -123.41,-28.73 -26.9,-57 21.3,-90.31 76.21,-80.96zm-222.91 64.59c-11.39,-84.96 124.93,-91.64 129.58,-15.29 4.81,78.98 -121.22,77.8 -129.58,15.29zm-264.89 24.6c-36.01,47.68 -129.5,14.3 -109.37,-53.37 15.06,-50.61 121.86,-67.73 121.68,27.77l-74.85 1.24c39.14,28.02 20.15,-12.55 62.54,24.36zm-742.26 -58.7c45.58,-52.75 122.42,-51.31 121.39,33.29l-48.34 9.9c23.09,5.22 7.66,-13.22 31.12,8.72 28.39,26.55 -113.19,70 -104.17,-51.91zm481.03 79.16c-61.28,0.04 -43.24,23.27 -43.24,-144.49 55.54,0.31 33.88,-12.42 85.14,72.76 49.81,-47.52 8.76,-71.91 87.09,-72.76 0,25.13 -0.08,50 0.51,75.12 0.08,3.54 -0.18,40.61 -0.38,41.37 -7.36,29 5.39,16.75 -21.66,28.04 -24.47,-11.19 -9.01,4.24 -17.83,-20.94 -2.9,-8.32 -1.68,-28.7 -1.68,-38.47 -13.29,18.28 -18.93,37.92 -46.08,46.1 -20.06,-11.28 -24.31,-21.64 -36.89,-45.11l-4.98 58.38zm-1048.63 -35.79c-12.25,18.13 -7.2,4.33 -8.17,35.83 -66.29,0 -49.25,29.41 -49.25,-144.53 49.08,0 111.01,-9.52 128.76,29.71 28.07,62 -23.38,75.42 -71.34,78.99zm1327.21 -50.25c5.07,-16.69 13.99,-18.27 15.38,-51.27 29.48,0.18 24.5,-5.06 42.48,8.69 20.49,15.66 -22.7,10.81 27.28,24.1 -3.1,47.7 4.14,25.84 -22.56,32.85 3.35,80.19 12.2,0.19 29.75,69.69 -34.36,5.68 -39.6,1.85 -66.7,-8.2l-25.63 -75.86zm-487.83 0c1.25,-4.71 13.76,-36.12 16.34,-39.18 8.63,-10.22 -3.22,-11.89 46.22,-12.09 1.98,42.08 -7.51,29.86 24.6,32.79 -3.31,70.59 -19.35,2.97 -22.13,51.83 -2.44,43.04 12.96,-7.98 27.24,46.61 -21.96,8.25 -50.05,13.09 -66.7,-9.7l-17.82 -55.48c-0.91,-2.19 -5.87,-12.8 -7.75,-14.78zm-90.12 85.11l-41.05 2.37 -3.57 -113.13c93.17,-0.03 147.26,-10.83 121.45,112.76l-42.12 -1.15c-0.49,-9.81 0.22,-30.52 -0.72,-36.91l-12.52 -36.22c-24.27,15.17 -9,-7.18 -18.36,28.36 -2.06,7.83 -1.79,32.47 -3.11,43.92zm729.72 1.99c-46.47,0 -46.66,20.38 -46.66,-78.98 0,-72.58 -17.56,-75.78 46.66,-75.78l1.27 47.22c86.95,-31.49 78.67,50.98 74.37,106.62l-41.88 0.49c-4.07,-37.31 5.83,-52.07 -14.33,-74.37 -14.63,9.08 -19.43,-12.82 -19.43,74.8zm-1081.29 -1.01l-41.04 0.58 -2.35 -110.28c73.52,-6.7 102.94,8.35 120.77,4.79 76.4,-15.25 78.69,6.05 71.04,105l-41.87 0.49c-4.08,-37.31 5.82,-52.07 -14.34,-74.37 -25.45,17.12 -11.92,34.48 -18.42,73.79l-41.03 0.58c-4.08,-37.31 5.82,-52.07 -14.35,-74.37 -25.45,17.12 -11.92,34.48 -18.41,73.79zm-297.59 -107.89c102.35,-23.16 105.34,15.14 105.34,107.48l-114.62 -12.54c-5.64,-57.84 14.98,-22.88 12.52,-68.5 -0.38,-6.88 -4.7,-11.55 -3.24,-26.44zm108.59 -4.93c82.33,-0.98 32.87,3.19 70.08,49.75 34.51,-46.66 -5.25,-52.86 65.62,-49.7 -15.16,58.3 -55.3,197.02 -128.67,141.44 12.61,-47.81 2.73,-11.92 36.37,-32.78l-43.4 -108.71zm-426.58 -154.81c-190.22,56.68 -147.57,323.7 -65.83,383.03 40.27,29.23 90.83,38.45 152.49,38.31 254.28,-0.58 2182.85,13.62 2256.93,-8.62 103.6,-31.11 135.16,-124.65 123.53,-256.14 -10.72,-121.18 -93.62,-165.58 -215.77,-165.32 -252.18,0.53 -2178.83,-12.87 -2251.35,8.74z"/>
   <path class="fil6" d="M1466.31 11776.75c11.36,-9.81 119.8,-10.81 156.89,1.01l1.07 36.13c-31.5,13.11 -56.73,10.52 -100.09,10.52 -42.33,0 -61.66,-1.98 -57.87,-47.66zm465.18 -100.55c-37.73,27.31 -348.96,13.64 -414.89,13.64 -51.51,0 -56.37,1.18 -51.38,-46.43 21.86,-16.48 362.47,-8.2 420.33,-8.2 38.33,0 50.99,2.45 45.94,40.99zm-447.43 716.46c-5.9,-7.86 -5.49,-7 -10.48,-16.68 -20.73,-16.96 -11.22,4.01 -14.49,-40.14l4.14 -291.65c133.23,0 872.38,9.12 938.71,-4.36 -23.91,-51.96 -54.38,-78.99 -73.95,-154.87 -17.35,-67.36 -14.81,-140.43 -14.8,-213.69 0.03,-147.43 5.21,-304.65 -0.97,-450.88 -224.21,0 -448.43,0 -672.63,0 -211.96,0 -321.04,-20.42 -319.83,188.5 0.33,57.36 0.05,114.82 0.05,172.2l0 16.4c0,71.34 -7.45,666.78 6.7,706.5 27.74,77.86 90.95,88.67 157.55,88.67z"/>
   <path class="fil9" d="M8431.33 6344.03l1.25 258.43 -2.98 479.16 8.45 -0.04 0 -479.63 3149.46 -4.12 2 -244.75 269.76 -2.07 0 249.84c7.45,-8.95 4.36,1.71 10.37,-20.64l2.57 -98.11c-0.05,-43.15 4.31,-90.02 -4.55,-131.16 -42.02,-18.26 -3106.04,-6.44 -3429.61,-6.44 0,-38.26 -6.73,-85.25 6.87,-119.45l-12.43 0.07 -1.16 118.91z"/>
   <path class="fil10" d="M4928.26 6889.05l1.88 193.08c83.83,-0.47 167.7,0.05 251.53,-0.15 94.42,-0.22 148.58,-1.02 181.88,74.72l4.36 7.83 179.54 2.75 0.96 -85.29 2881.19 -0.37 2.98 -479.16 -244.26 0 -0.68 286.39 -3259.38 0.2z"/>
   <path class="fil7" d="M3166.52 5807.5l153.91 156.09c-49.42,0.61 -41.53,-5.66 -40.92,50.28 0.35,31.45 0.96,62.66 1.97,94.23l-226.53 0 0.08 -142.18 -41.81 -4.11 153.3 -154.31zm9911.27 5453.31l-10273.92 0 -2.99 -5038.65 1880.06 0 0.09 -115.39 -1032.64 0.02c-149.03,0.35 -188.55,-10.62 -188.79,-149.26 -0.26,-158.07 55.14,-149.59 196.99,-149.55l1025.03 0 -0.25 -110.67c-109.57,0 -1832.68,-10.34 -1893.06,5.97l0.58 5564.95c205.91,8.93 430.14,0.93 638.13,0.93l9494.73 0c27.39,0 54.78,-0.14 82.15,0.16 10.73,0.13 31.44,1.01 41.14,0.16l32.75 -8.67z"/>
   <polygon class="fil11" points="8190.11,2017.02 8188.14,4747.15 8428.56,4747.15 8428.56,1948.76 8190.68,1948.76 "/>
   <path class="fil2" d="M9691.25 2645.57l0 -270.53c65.59,31.47 155.78,38.62 155.78,139.37l0 16.39c0,63.54 -89.45,113.29 -155.78,114.77zm-139.39 -778.79l0 270.53c-31.63,-0.71 -79.73,-22.9 -102.2,-37.18 -29.34,-18.65 -51.92,-54.01 -50.95,-92.94 1.03,-41.73 19.96,-73.79 49.57,-96.41 45.01,-34.38 61.01,-23.57 103.58,-44zm0 -172.15c-180.64,0 -360.77,134.29 -360.77,311.51 0,166.91 82.25,248.01 228.47,296.23l132.3 39.89 0 311.51c-99.98,-23.29 -152.65,-23.5 -242.54,-77.21 -24.22,-14.47 -47.15,-35.06 -77.23,-37.56 -13.44,57.67 -52.16,106.28 -65.59,163.95 32.38,8.65 164.9,122.97 385.36,122.97 0,217.92 -34.16,180.35 139.39,180.35l0 -180.35c167.81,-13.96 360.77,-120.63 360.77,-303.32 0,-105.58 -10.82,-190.19 -126.26,-259.06 -66.72,-39.83 -151.1,-65.81 -234.51,-85.25l0 -311.51c80.91,0 199.1,52.85 254.17,81.98l65.59 -163.96c-96.87,-51.25 -201.81,-95.74 -319.76,-98.37l0 -172.15 -139.39 0 0 180.35z"/>
   <path class="fil8" d="M4779.79 10262.93c-7.23,-7.99 -3.67,0.88 -9.79,-14.88l-4.62 -43.61c-0.38,-357.12 -36.18,-301.5 178.5,-301.5 203.05,0 192.58,-17.55 191.29,87.66 -3.95,323.7 42.43,281.33 -183.09,281.33 -49.87,0 -132.93,13.14 -172.29,-9zm590.71 162.28c15.08,-49.47 6.27,-342.7 6.27,-418.09 0,-398.9 33.03,-345.57 -506.68,-345.57 -400.54,0 -345.65,-28.42 -345.65,509.53 0,141.08 -32.01,301.61 90.39,336.82 52.38,15.08 341.75,5.82 419.24,5.82 131.06,0 299.55,32.48 336.43,-88.51z"/>
   <path class="fil8" d="M4765.88 8670.9c0,-47.19 5.71,-57.89 54.5,-57.89 102.46,-0.22 205.78,-6.61 307.68,4.9 12.69,43.16 13.89,319.8 -1.21,359.17 -88.37,9.99 -213.37,4.92 -305.96,4.92 -48.61,0 -55.01,-8.6 -55.01,-56.97l0 -254.13zm-137.04 -295.55c-139.66,35.98 -104.4,178.59 -104.4,328.34 0,542.68 -60.14,520.07 337.44,520.07 541.14,0 514.89,56.89 514.89,-339.72 0,-538.03 55.3,-512.43 -334.5,-512.43 -76.84,0 -361.97,-9.51 -413.43,3.74z"/>
   <path class="fil8" d="M4765.88 7383.85c0,-76.58 14.46,-60.53 153.4,-60.52 257.61,0.03 215.63,-40.88 215.67,216.28 0.01,128.36 16.9,152.72 -59.88,152.72l-254.18 0c-52.28,0 -55.01,-5.07 -55.01,-54.35l0 -254.13zm602.03 -219.32l-4.36 -7.83c-48.18,24.73 15.88,1.68 -26.25,6.84 -5.46,0.68 -18,0.8 -23.91,0.88l-385.5 -1.17 2.25 -81.12c-487.72,-4.29 -402.13,-66.5 -405.85,678.87 -0.7,141.91 51.37,173.55 190.01,173.08 120.23,-0.42 240.52,-0.04 360.77,-0.04 123.47,0 244.87,23.91 288.8,-72.89 22.01,-48.48 23.55,-636.59 4.04,-696.62z"/>
   <polygon class="fil8" points="5547.72,9793.98 5548.23,9826.07 8777.1,9826.02 8777.1,9665.52 8748.43,9660.76 5546.53,9661.55 "/>
   <polygon class="fil8" points="2788.06,5685.35 4682.34,5687.91 4680.59,5410.81 2795.67,5410.81 "/>
   <polygon class="fil8" points="5553.7,8531.84 8772.93,8531.84 8772.58,8376.13 8740.13,8376.13 5722.81,8376.13 5553.7,8376.13 "/>
   <path class="fil12" d="M6878.9 12208.29l2152.31 0c99.06,0 159.46,-58.43 164.06,-160.32l-2492.65 0c6.18,108 68.2,160.32 176.28,160.32z"/>
   <path class="fil2 str0" d="M13799.07 10335.03l0 -204.94c43.49,3.62 114.8,32.96 114.8,90.18 0,98.72 -46.74,82.12 -114.8,114.76zm-213.84 -713.16l-0.26 172.11c23.53,-14.67 21.39,-22.5 47.54,-35.37 20.19,-9.95 40.55,-12.69 59.98,-22.01l0 213.14 -107.52 -57.38 1.12 180.35c38.71,3.25 63.88,21.05 106.4,24.59l0 16.4 -108 0 0.58 16.39 107.42 0 0 204.94c-34.59,-2.87 -81.2,-12.62 -107.2,-24.59l0.38 147.56c132.8,2.92 106.82,14.72 106.82,147.56l106.58 0 0 -139.36c105.98,0 240.64,-65.03 270.29,-197.09 13.42,-59.83 4.78,-84.56 -7.92,-139.02 125.83,0 497.02,19.24 585.02,-29.93 95.98,-53.64 95.75,-126.92 95.54,-215.99 -6.91,-2904.84 -0.01,-5816.41 -0.01,-8722.39 0,-116.72 15.23,-205.51 -57.4,-254.13 19.92,74.57 49.2,-7.49 49.2,254.13l0 8394.47c0,103.83 -0.37,207.72 0.03,311.54 1.05,279.08 -151.94,245.91 -377.2,245.91 -103.86,0 -207.71,0 -311.57,0 -20.03,-74.98 -163.61,-120.18 -245.98,-139.36l0 -237.74c66.04,5.5 149.08,40.34 196.78,65.59 4.03,-48.41 36.55,-77.73 41.01,-131.17 -264.24,-139.79 -237.79,32.42 -237.79,-204.95l-106.58 0 0 139.37c-57.59,0 -71.66,19.56 -107.26,16.43z"/>
   <path class="fil12" d="M4681.03 6106.77l0.59 -298.79 -1025.03 0c-141.85,-0.04 -197.25,-8.52 -196.99,149.55 0.24,138.64 39.76,149.61 188.79,149.26l1032.64 -0.02z"/>
   <path class="fil2" d="M12331.41 3998.19c0,-242.19 147.58,-226.47 147.58,0 0,156.17 -105.8,157.47 -130.71,89.71 -9,-24.48 -16.87,-57.13 -16.87,-89.71zm-262.38 -8.19c0,380.72 517.72,454.25 643.27,134.88 78.26,-199.06 -7.31,-495.59 -315.3,-495.59 -151.69,0 -259.85,88.34 -302.49,214.03 -12.97,38.23 -25.48,97.55 -25.48,146.68z"/>
   <path class="fil2" d="M12384.51 4744.19c24.4,13.9 278.25,9.17 307.66,-0.15 15.94,-29.81 25.51,-41.16 45.74,-68.9l700.4 -1029.44 -303.38 0c-31.34,46.79 -60.69,86.88 -93.48,136.06l-93.56 135.99c-64.59,95.12 -124.31,183.18 -188.4,278.91l-374.98 547.53z"/>
   <path class="fil12" d="M9356.13 5927.79c121.87,-11.62 60.06,-25.23 114.74,-77.92 27.95,105.67 43.63,51.72 104.24,84.24l-50.49 46.05 10.81 82.8c-116.49,-38.47 -24.81,-39.5 -140.44,1.03l11.38 -85.08c-21.23,-11.32 -42.83,-27.72 -50.24,-51.12zm-921.72 182.17c59.1,-10.34 893.55,-3.42 1027.26,-3.18 139.32,0.24 199.47,-1.44 199.53,-149.35 0.05,-148 -64.92,-149.51 -199.53,-149.45 -167.64,0.07 -976.36,9.74 -1026.47,-4.69l-0.79 306.67z"/>
   <path class="fil2" d="M13241.52 4563.83c0,-53.89 7.6,-147.55 73.8,-147.55 32.84,0 43.93,0.42 57.81,40.56 26.24,75.83 33.15,269.82 -63.86,259.39 -55.28,-5.95 -67.75,-91.97 -67.75,-152.4zm-221.38 182.25c90.38,20.14 249.9,-25.18 401.13,97.3 25.31,20.49 13.04,20.23 41.63,33.68 168.07,-55.92 217.59,-280.33 167.19,-439.4 -58.94,-186.04 -254.23,-255.83 -418.21,-206.78 -228.44,68.33 -274.14,320.75 -191.74,515.2z"/>
   <polygon class="fil8" points="5547.45,7167.28 5547.78,7246.41 8777.1,7246.35 8777.1,7084.57 8438.05,7081.58 8429.6,7081.62 8431.81,7163.87 "/>
   <path class="fil13" d="M4681.9 3306.62l0.23 -425.58c-113.27,-12.2 -275.65,-2.96 -394.19,-2.97 -212.99,-0.01 -178.16,-4.56 -178.16,210.17 0,242.63 -23.85,221.34 169.96,221.34 107.67,0 305.35,11.41 402.16,-2.96z"/>
   <path class="fil1 str1" d="M7936.65 2017.04l5.7 1028.08c6.69,27.65 186.99,16.28 223.88,16.28 0,38.09 -6.03,133.07 4.98,166.36 0.64,1.94 1.85,4.95 3.17,7.22l0.05 -1218.35 -237.78 0.41z"/>
   <polygon class="fil14" points="5547.45,7167.28 8431.81,7163.87 8429.6,7081.62 5548.41,7081.99 "/>
   <polygon class="fil8" points="8985.85,8861.36 11056.42,8861.36 11056.81,8748.96 8984.07,8748.96 "/>
   <polygon class="fil8" points="8985.31,8500.01 10871.23,8500 10870.24,8387.68 8994.31,8387.7 "/>
   <polygon class="fil8" points="8985.85,9042.06 10722.31,9042.06 10724.61,8929.61 8986.11,8929.61 "/>
   <path class="fil2" d="M2311.92 8777.47l0.84 -57.39 -189.42 0c-9.29,34.76 -49.14,77.55 -70.56,109.8l-449.35 657.44c-19.9,28.71 -63.24,87.23 -70.44,118.12 34.75,0 171.52,4.37 194.84,-1.95 38.91,-10.55 216.44,-300.06 254.87,-351.8 46.1,-62.06 306.13,-457.31 329.22,-474.22z"/>
   <polygon class="fil8" points="8985.27,8680.67 10485.19,8680.63 10484.32,8568.33 8988.16,8568.35 "/>
   <path class="fil2" d="M1623.18 9064.39c-87.03,-20.28 -54.54,-146.8 -40.99,-204.95 46.68,-10.87 86.61,-26.62 84.8,97.25 -0.86,59.42 -7.31,83.26 -43.81,107.7zm-245.98 -106.57c0,261.04 342.28,334.62 448.49,112.29 75.58,-158.21 -26.69,-358.23 -177.91,-358.23 -63.35,0 -87.38,-3.51 -147.83,24.36 -27.78,12.8 -42.84,28.95 -63.56,51.21 -33.55,36.06 -59.19,103.26 -59.19,170.37z"/>
   <path class="fil15" d="M8187.65 5410.99l244.18 -0.11c0,-112.93 0,-225.85 0,-338.78 0,-78.26 -14.65,-277.93 11.12,-327.91l-14.39 2.96 -240.42 0 -0.49 663.84z"/>
   <polygon class="fil8" points="5547.72,10253.05 5548.96,10284.2 6519.16,10284.18 6521.7,10253.07 6521.38,10119.63 5547.55,10119.63 "/>
   <polygon class="fil8" points="5547.69,7704.5 6521.21,7704.5 6521.31,7543.86 5548,7540.02 "/>
   <polygon class="fil8" points="5553.21,8989.98 5599.82,8989.98 6058.97,8989.99 6516.24,8990.1 6516.24,8833.38 5550.62,8833.38 "/>
   <path class="fil9" d="M4680.8 6601.95l1.15 -257.45c-87.68,0 -477.49,-13.55 -528.4,6.44 -14.69,62.55 -4.95,184.06 -4.95,254.09l532.2 -3.08z"/>
   <polygon class="fil8" points="5108.5,4464.9 6328,4465.54 6327.67,4353.22 5108.89,4353.22 "/>
   <polygon class="fil8" points="5559.86,10513.37 6351.77,10513.02 6351.77,10348.95 5557.65,10348.8 "/>
   <path class="fil8" d="M5557.51 7933.69l799.53 -0.13c-12.91,-49.72 -5.27,-110.88 -5.27,-162.04l-789.33 -2.39 -4.93 164.56z"/>
   <polygon class="fil8" points="5558.63,9217.39 6349.02,9217.39 6348.96,9062.11 5556.58,9062.11 "/>
   <polygon class="fil8" points="5547.72,10023.52 5548.74,10054.94 6255.76,10054.93 6256.63,10023.53 6256.36,9890.44 5546.53,9890.44 "/>
   <polygon class="fil8" points="5547.64,7475.3 6253.71,7475.3 6256.19,7310.78 5548.58,7310.78 "/>
   <polygon class="fil8" points="5108.74,4164 5140.66,4164.81 6134.82,4164.68 6134.9,4052.02 5108.74,4052.04 "/>
   <polygon class="fil8" points="6256.66,8761.09 6256.96,8604.67 5553.21,8604.67 5553.19,8761.09 "/>
   <path class="fil8" d="M5823.63 3235.8c-34.57,-95.86 84.53,-138.38 105.3,-56.06 24.32,96.33 -80.37,125.2 -105.3,56.06zm-5.22 -204.74c-262.07,70.33 -151.13,418.3 120.48,346.53 239.32,-63.24 149.77,-419.05 -120.48,-346.53z"/>
   <path class="fil16 str2" d="M4908.05 9990.73c0,-49.61 2.47,-52.51 52.23,-52.51 122.45,0 129.5,-10.64 129.5,52.51 0,41.32 4.31,88.95 -7.45,122.04 -12.59,4.23 -21.78,7.14 -40.06,7.14 -154.66,0 -134.22,21.23 -134.22,-129.18zm-128.26 272.2c39.36,22.14 122.42,9 172.29,9 225.52,0 179.14,42.37 183.09,-281.33 1.29,-105.21 11.76,-87.66 -191.29,-87.66 -214.68,0 -178.88,-55.62 -178.5,301.5l4.62 43.61c6.12,15.76 2.56,6.89 9.79,14.88z"/>
   <path class="fil8" d="M6561.91 3246.15l65.09 -3.43c-3.1,70.52 -56.89,72.93 -81.32,33.2 6.47,-18.47 7.58,-16.71 16.23,-29.77zm-133.27 -182.5l41.29 91.17c49.75,-16.99 132.43,-53.66 155,15.61 -64.27,2.97 -240.71,-9.05 -214.39,130.02 8.53,45.08 46.28,75.47 91.55,83.69 89.98,16.34 85.99,-15.53 135.06,-39.86 0.97,47.04 -8.31,36.82 132.89,36.82 10.76,-106.82 17.78,-258.65 -48.82,-315.6 -71.24,-60.89 -218.05,-55.15 -292.58,-1.85z"/>
   <path class="fil16 str2" d="M4908.05 7408.44c0,-44.68 8.86,-50.05 52.23,-50.05 70.3,-0.55 58.98,-5.23 125.71,6.14 5.74,66.51 7.29,103.77 -0.48,170.4 -210.81,25.6 -177.46,-5.47 -177.46,-126.49zm-142.17 -24.59l0 254.13c0,49.28 2.73,54.35 55.01,54.35l254.18 0c76.78,0 59.89,-24.36 59.88,-152.72 -0.04,-257.16 41.94,-216.25 -215.67,-216.28 -138.94,-0.01 -153.4,-16.06 -153.4,60.52z"/>
   <path class="fil16 str2" d="M4917.18 8820.38c-12.98,-23.6 -24.52,-141.2 2.68,-164.79 20.21,-17.52 140.32,-7.59 162.47,-0.15 11.04,31.05 15.17,129.35 0.99,163.02 -34.31,22.41 -136.13,19.13 -166.14,1.92zm-151.3 -149.48l0 254.13c0,48.37 6.4,56.97 55.01,56.97 92.59,0 217.59,5.07 305.96,-4.92 15.1,-39.37 13.9,-316.01 1.21,-359.17 -101.9,-11.51 -205.22,-5.12 -307.68,-4.9 -48.79,0 -54.5,10.7 -54.5,57.89z"/>
   <path class="fil2" d="M2313.01 9605.44l0.12 -204.95c-15.61,21.45 -5.96,31.91 -34.01,73.78l-41 0c-45.32,-67.68 -45.18,-145.67 0,-213.13l41 0c22.85,34.12 12.27,23.98 25.61,56.61 0.75,1.82 1.89,4.25 2.6,5.87l5.8 11.29 -0.12 -204.94c-73.22,-32.63 -288.46,4.88 -288.46,237.73 0,50.73 2.64,75.81 19.19,112.37 49.44,109.23 189.19,161.06 269.27,125.37z"/>
   <polygon class="fil8" points="5273.12,3045.98 5404.31,3047.21 5406.73,3378.99 5556.55,3381.34 5559.04,3350.6 5558.62,3047.05 5689.75,3047.05 5689.81,2929.55 5273.12,2929.67 "/>
   <polygon class="fil8" points="5109.75,4920.6 5985.18,4920.58 5973.76,4920.58 5974.28,4810.95 5108.74,4808.25 "/>
   <path class="fil17" d="M8433.1 5690.62l0.37 -274.21 4644.54 -3.66 -0.43 -8.15c-70.87,15.26 -1000.7,4.56 -1156.13,4.56l-2910.74 0c-175.68,0 -410.41,-13.27 -578.88,1.72l-244.18 0.11 -1.12 280.15 246.57 -0.52z"/>
   <path class="fil8" d="M3894.38 10163.42l-79.97 -87.65 71.59 31.25c24.11,-26.06 44.56,-46.94 70.31,-70.93 16.65,-15.51 21.14,-19.42 36.28,-37.24 19.7,-23.2 15.92,-23.15 43.25,-34.79l-141.46 199.36zm-119.98 37.44l309.5 1.05 2.36 -30.81 -0.4 -280.66 -311.46 0.43 0 309.99z"/>
   <path class="fil8" d="M3894.38 7583.2l-10.42 -7.42c-5.63,-5.09 -6.32,-5.43 -13.05,-12.83 -7.89,-8.71 -9.98,-12.95 -18.96,-22.43 -20.99,-22.15 -22.19,-14.38 -35.49,-46.02l71.78 33.04c22.39,-34.08 124.66,-136.25 155.81,-152.95 -18.44,36.86 -45.34,72.4 -70.28,105l-65.58 90.72c-8,8.84 -5.15,5.64 -13.81,12.89zm-119.98 36.03l29.73 3.55 281.65 -0.6 0.08 -279.31 -0.53 -32.07 -310.93 0.33 0 308.1z"/>
   <polygon class="fil18" points="5108.58,3886.63 5140.66,3887.42 5854,3887.29 5853.94,3774.61 5108.58,3774.64 "/>
   <path class="fil8" d="M3894.38 8873.81c-37.39,-23.99 -51.36,-57.71 -77.92,-86.12l65.18 25.21 168.55 -156.37c-13.06,27.54 -135.82,200.72 -155.81,217.28zm-117.05 33.93l303.57 0 -0.25 -303.27 -302.08 0 -1.24 303.27z"/>
   <path class="fil8" d="M6143.24 3047.46c-28.51,0.07 -29.99,-4.71 -49.2,8l0 90.17c19.21,12.71 20.69,7.93 49.2,8l0 98.57c0,125.55 140.28,165.51 241.44,115.64l-32.45 -97.75 -57.58 5.94 -6.29 -122.4 71.75 -1.57 -0.03 -102.54 -71.72 -2.06 0 -98.37 -145.12 0.57 0 97.8z"/>
   <polygon class="fil19" points="8186.74,6106.77 8434.41,6109.96 8435.2,5803.29 8187.19,5804.85 "/>
   <polygon class="fil8" points="6836.17,3381.15 6981.54,3380.68 6981.54,2903.66 6838.76,2902.43 "/>
   <path class="fil20" d="M6910.7 6060.96c87.77,-39.1 120.86,105.33 52.04,136.79 -90.18,41.21 -128.6,-102.7 -52.04,-136.79zm-0.01 -83.03c-221.92,29.62 -170.14,348.91 64.46,304.82 197.91,-37.19 162.94,-335.16 -64.46,-304.82z"/>
   <polygon class="fil20" points="5514.7,6280.28 5615.24,6278.66 5615.21,6170.62 5708.44,6170.62 5708.44,6278.22 5808.97,6280.28 5808.91,5982.01 5708.42,5982.78 5708.06,6087.55 5616.16,6087.55 5615.05,5983.06 5514.68,5982.01 "/>
   <polygon class="fil21" points="11587.51,6597.83 11859.27,6600.85 11859.27,6351.01 11589.51,6353.08 "/>
   <path class="fil20" d="M6464.24 6279.26l90.86 1.18c17.32,-42.52 -2.4,-46.49 21.47,-92.41 28.83,7.73 70,72.54 76.85,91.22l118.92 0.83c-21.87,-53.13 -84.86,-110.04 -118.39,-166.87 27.77,-33.91 97.32,-103.52 112.25,-131.2l-109.7 0c-24.48,38.21 -64.68,69.4 -93.26,103.53l-0.99 -103.53 -98.48 1.15 0.47 296.1z"/>
   <polygon class="fil22" points="8188.32,6602.46 8432.58,6602.46 8431.33,6344.03 8188,6344.03 "/>
   <polygon class="fil8" points="7138.41,4465.58 7703.07,4465.28 7703.06,4354.66 7141.08,4353.17 "/>
   <path class="fil20" d="M7138.16 6121.41c0,62.07 7.96,111.25 51.13,140.6 39.46,26.84 105.72,32.18 155.74,13.69 108.93,-40.29 82.22,-170.44 82.22,-292.64l-98.41 -1.05c-0.02,49.34 10.92,202.27 -22.59,220.3 -55.16,5.69 -66.55,-21.02 -66.55,-72.71l0 -147.59 -101.49 0 -0.05 139.4z"/>
   <path class="fil20" d="M5858.08 6280.28l248.07 -0.55 -0.48 -73.29 -149.24 -3.6 0.73 -35.34 126.44 -2.25 -2.98 -72.71 -124.11 0.15c3.32,-51.42 -10.58,-34.78 144.53,-34.78l0 -75.9 -243.46 0 0.5 298.27z"/>
   <path class="fil8" d="M3013.22 5961.81l41.81 4.11 -0.08 142.18 226.53 0c-1.01,-31.57 -1.62,-62.78 -1.97,-94.23 -0.61,-55.94 -8.5,-49.67 40.92,-50.28l-153.91 -156.09 -153.3 154.31z"/>
   <path class="fil23" d="M5553.7 8376.13l169.11 0 3017.32 0 32.45 0 0.35 155.71 -3219.23 0 0 -155.71zm-8.47 160.8l29.93 3.56 3173.17 -0.59 32.39 -0.46 0 -171.44 -3235.49 0.02 0 168.91z"/>
   <path class="fil20" d="M6430.53 6227.97l-58.55 -53.96c-157.18,95.8 -173.22,-96.99 -80.27,-114.72 44.57,-8.5 54.08,18.44 88.08,28.32 12.38,-14.39 36.27,-37.5 53.29,-54.35 -94.94,-101.16 -290.37,-67.73 -298.12,89.73 -3.85,78.31 40.17,132.12 98.17,152.1 78.79,27.13 165,6.11 197.4,-47.12z"/>
   <path class="fil20" d="M5481.46 6227.97c-19.84,-34.24 -32.68,-27.55 -54.83,-56.37 -20.74,13.01 -44.44,39.54 -87.24,30.74 -70.12,-14.42 -70.17,-130.23 0.85,-143.21 53.12,-9.71 52.46,18.9 89.48,30.55 15.64,-18.17 39.09,-40.63 53.29,-58.48 -116.16,-113 -295.51,-46.57 -296.68,98.4 -1.3,160.83 203.32,208.9 295.13,98.37z"/>
   <path class="fil24" d="M2546.43 3239.06c100.68,13.98 443.89,5.62 569.01,5.49 53.52,0 54.27,-24.86 43.17,-67.76 -98.63,-10.59 -444.69,-3.94 -567.91,-3.85 -53.79,0 -52.34,14.98 -44.27,66.12z"/>
   <path class="fil20" d="M7536.6 6064.49l0.28 213.73 100.46 2.42c0.02,-268.18 -19.88,-220.71 88.17,-220.71l0 -77.92 -273.14 -0.22 0 74.51c15.25,0 35.88,-1.35 50.26,-0.62l33.97 8.81z"/>
   <path class="fil24" d="M2547.52 2485.42c54.95,19.16 521.3,12.93 611.48,1.79 8.61,-58.49 -0.93,-62.98 -59.95,-62.98l-500.16 0c-51.16,0 -60.49,17.67 -51.37,61.19z"/>
   <path class="fil24" d="M4681.54 2118.74l0.09 -70.52 -492.32 -0.2c-64.92,-0.65 -106.28,-2.72 -77.36,65.78 110.97,20.73 432.67,4.94 569.59,4.94z"/>
   <path class="fil20" d="M7939.13 1742.3c-135.92,47.71 -62.41,239.22 66.81,194.13 125.83,-43.92 56.13,-237.28 -66.81,-194.13z"/>
   <path class="fil14" d="M5363.55 7156.7c-33.3,-75.74 -87.46,-74.94 -181.88,-74.72 -83.83,0.2 -167.7,-0.32 -251.53,0.15l-2.25 81.12 385.5 1.17c5.91,-0.08 18.45,-0.2 23.91,-0.88 42.13,-5.16 -21.93,17.89 26.25,-6.84z"/>
   <path class="fil25" d="M4917.18 8820.38c30.01,17.21 131.83,20.49 166.14,-1.92 14.18,-33.67 10.05,-131.97 -0.99,-163.02 -22.15,-7.44 -142.26,-17.37 -162.47,0.15 -27.2,23.59 -15.66,141.19 -2.68,164.79z"/>
   <path class="fil18" d="M3508.02 6426.74c11.35,14.77 28.19,36.22 18.2,63.96 -7.67,21.29 -25.09,38.75 -55.52,31.07 -40.06,-10.1 -61.58,-112.85 37.32,-95.03zm-67.67 -50.15c-32.8,12.64 -46.49,11.64 -62.69,47.86 -43.55,97.29 50.67,185.26 155.03,146.85 129.58,-47.68 61.78,-254.11 -92.34,-194.71z"/>
   <path class="fil18" d="M3696.74 6423.05l50.72 9.75 0.53 35.13 -50.81 4.99 -0.44 -49.87zm-70.97 150.24l69.77 -0.96 -0.02 -49.26c71.85,14.75 -13.9,53.26 121.86,53.26 -9.59,-27.11 -20.79,-40 -35.78,-60.37 0.2,-0.26 76.11,-70.32 15.11,-124.77 -31.01,-27.69 -117.46,-26.22 -169.8,-20.74l-1.14 202.84z"/>
   <path class="fil25" d="M4908.05 7408.44c0,121.02 -33.35,152.09 177.46,126.49 7.77,-66.63 6.22,-103.89 0.48,-170.4 -66.73,-11.37 -55.41,-6.69 -125.71,-6.14 -43.37,0 -52.23,5.37 -52.23,50.05z"/>
   <path class="fil25" d="M4908.05 9990.73c0,150.41 -20.44,129.18 134.22,129.18 18.28,0 27.47,-2.91 40.06,-7.14 11.76,-33.09 7.45,-80.72 7.45,-122.04 0,-63.15 -7.05,-52.51 -129.5,-52.51 -49.76,0 -52.23,2.9 -52.23,52.51z"/>
   <path class="fil18" d="M3845.11 6576.33l172.26 0 -0.03 -53.21c-30.89,0 -80.29,7.72 -102.51,-8.22 8.87,-31.62 46.86,-19.51 84.05,-19.51l4.1 -50.14c-36.13,0 -72.81,8.29 -88.15,-12.33 19.51,-18.89 63.01,-11.31 93.26,-11.31l4.42 -53.23 -166.31 0.01 -1.09 207.94z"/>
   <polygon class="fil10" points="8188,6344.03 8431.33,6344.03 8432.49,6225.12 8188.25,6222.32 "/>
   <polygon class="fil26" points="8188.25,6222.32 8432.49,6225.12 8434.41,6109.96 8186.74,6106.77 "/>
   <path class="fil18" d="M3095.49 6514.9c-27,26.35 -62.23,3.36 -96.85,-4.06l-14.54 44.98c122.72,91.34 274.78,-65.55 114.19,-105.5 -47.92,-11.92 -37.28,-14.86 -40.27,-25.6 29.42,-11.07 54.74,-0.03 80.96,7.14l18.48 -50.78c-55,-18.97 -144.88,-26.22 -167.11,25.54 -39.19,91.28 66.1,77.11 105.14,108.28z"/>
   <path class="fil0" d="M12311.89 6382.14l-254.66 -17.45 35.36 126.5 189.62 2.21c24.5,-15.4 15.43,-10.3 20.73,-46.69 3.12,-21.56 6.12,-43.4 8.95,-64.57z"/>
   <path class="fil24" d="M1465.22 11643.41c-4.99,47.61 -0.13,46.43 51.38,46.43 65.93,0 377.16,13.67 414.89,-13.64 5.05,-38.54 -7.61,-40.99 -45.94,-40.99 -57.86,0 -398.47,-8.28 -420.33,8.2z"/>
   <path class="fil8" d="M9112.25 7854.28c-20.49,16.53 -17.91,12.52 -53.44,13.29l0 -85.18c111.07,2.72 54.27,67.91 53.44,71.89zm-113.79 59.32c254.28,56.3 253.43,-229.2 0,-173.1l0 173.1z"/>
   <path class="fil8" d="M9356.13 5927.79c7.41,23.4 29.01,39.8 50.24,51.12l-11.38 85.08c115.63,-40.53 23.95,-39.5 140.44,-1.03l-10.81 -82.8 50.49 -46.05c-60.61,-32.52 -76.29,21.43 -104.24,-84.24 -54.68,52.69 7.13,66.3 -114.74,77.92z"/>
   <path class="fil8" d="M10499.81 7823.37c54.28,-19.15 49.8,59.2 -0.99,40.1 -9.97,-25.57 -11.13,-12.8 0.99,-40.1zm35.12 -41.92c-123.73,-42.09 -135.16,132.19 -32.42,132.84 24.53,0.16 12.93,-2.99 38.58,-2.87 14.7,0.08 33.37,2.12 49.97,2.12 6.68,-42.14 8.86,-150.23 -2.05,-189.43l-49.1 0 -4.98 57.34z"/>
   <path class="fil8" d="M10308.92 7840.2c1.79,-21.5 6.32,-29.52 18.25,-42.98l9.08 42.98 -27.33 0zm-90.81 74.39l57.28 1.23c13.64,-31.5 4.34,-33.92 47.44,-34.74 47.92,-0.92 33.79,3.06 46.95,34.53l58.31 0 -73.67 -178.35c-66.85,-1.17 -68.35,-11.6 -136.31,177.33z"/>
   <path class="fil8" d="M10679.21 7822.38c16.69,-4.5 35.69,-11.9 36.8,20.77 0.95,28.04 -10.66,24.57 -32.65,24.95 -17.68,-26.84 -14.69,-20.3 -4.15,-45.72zm34.87 -42.99c-63.32,-14.3 -120.63,16.79 -94.6,93.21 9.63,28.25 30.83,42.11 63.24,41.73l87.67 -0.79 2.52 -189.43 -52.56 0 -6.27 55.28z"/>
   <polygon class="fil27" points="3169.6,6419.59 3230.2,6425.67 3231.05,6577.39 3298.93,6576.47 3301.16,6424.71 3361.42,6424.71 3359.73,6370.38 3170.8,6371.08 "/>
   <path class="fil20" d="M12540.48 5477.88c-95.66,32.14 -61.56,183.56 51.06,150.41 90.63,-26.66 50.76,-184.63 -51.06,-150.41z"/>
   <path class="fil20" d="M12228.9 5482.99c-26.83,11.55 -29.26,3.39 -42.49,35.04 -30.23,72.31 38.74,138.23 107.05,106.75 84.52,-38.93 38.32,-186.1 -64.56,-141.79z"/>
   <path class="fil20" d="M12843.83 5481.95c-102.05,44.39 -40.78,179.2 57.74,144.6 90.44,-31.75 42.53,-188.19 -57.74,-144.6z"/>
   <path class="fil27" d="M12057.23 6364.69l254.66 17.45c-2.83,21.17 -5.83,43.01 -8.95,64.57 -5.3,36.39 3.77,31.29 -20.73,46.69l-189.62 -2.21 -35.36 -126.5zm-118.34 -79.33c1.63,1.05 4.31,0.39 5.22,2.58l26.13 5.92c10.78,0.96 28.08,0.14 40.38,0.72l68.19 218.08 234.15 0.18 21.94 -145.43 -284.3 -22.98 -21.29 -76.25c-15.38,-0.23 -36.48,-1.73 -51.64,-1.22 -61.56,2.12 -28.37,4.96 -38.78,18.4z"/>
   <path class="fil20" d="M10445.58 9817.57c27.15,-8.18 32.79,-27.82 46.08,-46.1 0,9.77 -1.22,30.15 1.68,38.47 8.82,25.18 -6.64,9.75 17.83,20.94 27.05,-11.29 14.3,0.96 21.66,-28.04 0.2,-0.76 0.46,-37.83 0.38,-41.37 -0.59,-25.12 -0.51,-49.99 -0.51,-75.12 -78.33,0.85 -37.28,25.24 -87.09,72.76 -51.26,-85.18 -29.6,-72.45 -85.14,-72.76 0,167.76 -18.04,144.53 43.24,144.49l4.98 -58.38c12.58,23.47 16.83,33.83 36.89,45.11z"/>
   <path class="fil8" d="M9978.28 7774.55l53.46 134.69c-33.75,31.02 -33.55,-25.59 -48.37,49.44 70.83,12.77 88.44,4.05 112.45,-55.55 14.11,-35.02 46.01,-96.84 44.29,-129.83l-42.96 0 -23.92 49.59c-1.18,2.26 -5.26,9 -6.45,10.89 -0.93,1.46 -2.97,3.98 -3.75,5.15 -0.8,1.18 -2.48,3.51 -3.92,5.09l-26.08 -71.34 -54.75 1.87z"/>
   <path class="fil20" d="M9752.77 9830.89c6.49,-39.31 -7.04,-56.67 18.41,-73.79 20.17,22.3 10.27,37.06 14.35,74.37l41.03 -0.58c6.5,-39.31 -7.03,-56.67 18.42,-73.79 20.16,22.3 10.26,37.06 14.34,74.37l41.87 -0.49c7.65,-98.95 5.36,-120.25 -71.04,-105 -17.83,3.56 -47.25,-11.49 -120.77,-4.79l2.35 110.28 41.04 -0.58z"/>
   <path class="fil28" d="M5550.62 8833.38l965.62 0 0 156.72 -457.27 -0.11 -459.15 -0.01 -46.61 0 -2.59 -156.6zm-5.61 162.85l30.19 2.25 483.77 -0.38 434.57 0.11 30.89 -1.02 -0.02 -168.61 -979.4 -3.11 0 170.76z"/>
   <path class="fil8" d="M9280.69 7827.84c-43.46,3.68 -0.49,4.88 -20.2,-14.78l38.52 2.91c-16.62,16.3 8.82,9.57 -18.32,11.87zm59.49 64.28c-40.57,-52.29 -39.05,4.75 -77.4,-33.86l90.18 -1.01c12.42,-106.18 -113.75,-105.58 -144.22,-45.44 -43.91,86.66 86.86,138.59 131.44,80.31z"/>
   <path class="fil8" d="M11007.69 7830.06c-60.12,-1.88 -22.83,2.39 -38.77,-14.18 24.19,-10.87 26.34,-3.06 38.77,14.18zm41.5 62.06c-25.24,-22.62 -7.39,-17.73 -36.27,-21.18 -47.38,-5.65 -19.45,11.86 -42.64,-12.68l90.19 -0.98c11.82,-100.13 -114.92,-108.33 -145.26,-44.44 -37.49,78.92 76.28,140.29 133.98,79.28z"/>
   <path class="fil8" d="M9794.41 7830.27c-52.75,-2.24 -23.9,0.82 -36.94,-13.47 27.62,-16.41 28.27,1.4 36.94,13.47zm44.37 68.94c-12.3,-18.12 -14.79,-24.1 -33.03,-27.58 -27.31,-5.21 -26.09,11.74 -47.92,-13.37l90.2 -0.98c12.57,-100.56 -115.27,-106.36 -143.26,-49.45 -19.56,39.78 -4.38,77.41 24.83,95.17 35.89,21.81 78.66,9.03 109.18,-3.79z"/>
   <path class="fil29" d="M5558.63 9217.39c33.75,21.98 757.52,8.6 793.16,8.6l5.1 -171.55 -774 -0.34c-19.54,2.07 4.17,-2.08 -14.53,2.55l-11.78 5.46 792.38 0 0.06 155.28 -790.39 0z"/>
   <path class="fil8" d="M6910.7 6060.96c-76.56,34.09 -38.14,178 52.04,136.79 68.82,-31.46 35.73,-175.89 -52.04,-136.79z"/>
   <path class="fil20" d="M9350.85 9724.18c42.88,1.73 27.15,-2.83 30.15,30.38l-35.26 2.81 5.11 -33.19zm4.23 70.87c47.96,-3.57 99.41,-16.99 71.34,-78.99 -17.75,-39.23 -79.68,-29.71 -128.76,-29.71 0,173.94 -17.04,144.53 49.25,144.53 0.97,-31.5 -4.08,-17.7 8.17,-35.83z"/>
   <path class="fil28" d="M6256.66 8761.09l-703.47 0 0.02 -156.42 703.75 0c-1.81,-1.04 -4.38,-4.89 -5.42,-3.1l-27.97 -5.57c-14.21,-0.72 -34.75,0.56 -49.8,0.61 -134.55,0.39 -560.6,-7.33 -628.76,3.08l0 167.01c74.94,9.23 489.62,2.07 628.76,2.48 31.86,0.1 60.71,5.09 82.89,-8.09z"/>
   <path class="fil20" d="M11119.45 9770.64c5.18,-29.02 26.12,-12.51 26.13,-12.51 8.79,22.25 14.01,7.74 -3.07,34.8 -13.43,-2.4 -27.75,4.01 -23.06,-22.29zm33.29 -49.45c-54.91,-9.35 -103.11,23.96 -76.21,80.96 18.25,38.65 74.02,28.4 123.41,28.73l0 -153.74c-55.37,0.3 -44.97,-7.64 -47.2,44.05z"/>
   <path class="fil8" d="M9638.89 7913.54c16.41,-31.03 47.46,-99.67 56.42,-140.25 -48.31,0.1 -44.7,-0.75 -57.06,16.56 -0.27,0.4 -19.01,50.16 -20.74,55.19 -41.23,-55.1 8.64,-71.75 -87.1,-71.75 9.24,36.34 22.67,63.89 34.36,97.84 18.38,53.34 14.43,42.41 74.12,42.41z"/>
   <path class="fil8" d="M11154.87 7875.77c-58.35,0.26 -68.58,-27.62 -76.87,24.54 46.84,31.29 131.54,23.81 129.01,-51.19 -34.03,-24.88 -42.67,-15.08 -72.23,-30.78 49.38,-26.48 50.65,36.73 65.07,-32.8 -85.65,-45.46 -186.14,35.62 -75.57,75.42l30.59 14.81z"/>
   <path class="fil8" d="M11299.4 7865.4c-43.46,34.12 -57.9,-35.08 -75.87,34.91 45.84,28.92 130.26,27.4 130.05,-49.13 -37.99,-34.31 -37.38,-11.73 -75.32,-32.84 43.93,-28.14 48.72,37.71 68.15,-32.8 -98.51,-52.39 -201.86,62.09 -47.01,79.86z"/>
   <path class="fil24" d="M2598.89 2670.16l149.88 -5.07c26.55,-86.1 -53.29,-65.18 -125.67,-65.69 -36.49,-0.26 -70.42,-5.9 -79.02,24.41 -11.7,41.22 24.35,46.35 54.81,46.35z"/>
   <path class="fil20" d="M10834.06 9831.9c0,-87.62 4.8,-65.72 19.43,-74.8 20.16,22.3 10.26,37.06 14.33,74.37l41.88 -0.49c4.3,-55.64 12.58,-138.11 -74.37,-106.62l-1.27 -47.22c-64.22,0 -46.66,3.2 -46.66,75.78 0,99.36 0.19,78.98 46.66,78.98z"/>
   <path class="fil1" d="M5823.63 3235.8c24.93,69.14 129.62,40.27 105.3,-56.06 -20.77,-82.32 -139.87,-39.8 -105.3,56.06z"/>
   <path class="fil20" d="M9563.77 9718.07l43.4 108.71c-33.64,20.86 -23.76,-15.03 -36.37,32.78 73.37,55.58 113.51,-83.14 128.67,-141.44 -70.87,-3.16 -31.11,3.04 -65.62,49.7 -37.21,-46.56 12.25,-50.73 -70.08,-49.75z"/>
   <path class="fil20" d="M10104.34 9829.91c1.32,-11.45 1.05,-36.09 3.11,-43.92 9.36,-35.54 -5.91,-13.19 18.36,-28.36l12.52 36.22c0.94,6.39 0.23,27.1 0.72,36.91l42.12 1.15c25.81,-123.59 -28.28,-112.79 -121.45,-112.76l3.57 113.13 41.05 -2.37z"/>
   <path class="fil24" d="M9922.68 9751.68c-9.02,121.91 132.56,78.46 104.17,51.91 -23.46,-21.94 -8.03,-3.5 -31.12,-8.72l48.34 -9.9c1.03,-84.6 -75.81,-86.04 -121.39,-33.29z"/>
   <path class="fil20" d="M10994.92 9795.5c-24.39,-15.83 -21.28,-17.23 -11.25,-42.47 20.87,4.04 22.3,-5.74 27.2,17.64 5.04,24 -10.99,21.48 -15.95,24.83zm-65.09 -9.72c8.36,62.51 134.39,63.69 129.58,-15.29 -4.65,-76.35 -140.97,-69.67 -129.58,15.29z"/>
   <path class="fil30" d="M9510.95 9786.87c-21.43,41.92 -17.91,10.35 -23.78,3.8l23.78 -3.8zm-52.53 -37.43c2.46,45.62 -18.16,10.66 -12.52,68.5l114.62 12.54c0,-92.34 -2.99,-130.64 -105.34,-107.48 -1.46,14.89 2.86,19.56 3.24,26.44z"/>
   <path class="fil20" d="M10664.94 9810.38c-42.39,-36.91 -23.4,3.66 -62.54,-24.36l74.85 -1.24c0.18,-95.5 -106.62,-78.38 -121.68,-27.77 -20.13,67.67 73.36,101.05 109.37,53.37z"/>
   <path class="fil8" d="M9896.23 7774.29l-25.59 0 1.57 140.34 54.67 -0.04 3.38 -78.93c35.13,-23.46 46.27,-1.82 38.55,-63.35 -87.12,14.13 -18.73,1.98 -72.58,1.98z"/>
   <path class="fil8" d="M10800.56 7913.55l53.91 1.24 4.69 -76.02c34.29,-31.18 41,0.26 41.44,-66.48l-48.96 6.77c-26.67,-3.17 -17.82,-6.68 -51.38,-1.66l0.3 136.15z"/>
   <path class="fil31" d="M3778.57 8604.47l302.08 0 0.25 303.27 -303.57 0 1.24 -303.27zm-8.99 311.35l319.15 -0.2 0 -316.07 -318.09 -3.39 -1.06 319.66z"/>
   <path class="fil20" d="M3894.38 7583.2c8.66,-7.25 5.81,-4.05 13.81,-12.89l65.58 -90.72c24.94,-32.6 51.84,-68.14 70.28,-105 -31.15,16.7 -133.42,118.87 -155.81,152.95l-71.78 -33.04c13.3,31.64 14.5,23.87 35.49,46.02 8.98,9.48 11.07,13.72 18.96,22.43 6.73,7.4 7.42,7.74 13.05,12.83l10.42 7.42z"/>
   <path class="fil20" d="M3894.38 8873.81c19.99,-16.56 142.75,-189.74 155.81,-217.28l-168.55 156.37 -65.18 -25.21c26.56,28.41 40.53,62.13 77.92,86.12z"/>
   <polygon class="fil8" points="9380.02,7911 9428.52,7911 9428.52,7728.5 9380.03,7728.5 "/>
   <path class="fil20" d="M10767.43 9726.32c-49.98,-13.29 -6.79,-8.44 -27.28,-24.1 -17.98,-13.75 -13,-8.51 -42.48,-8.69 -1.39,33 -10.31,34.58 -15.38,51.27l25.63 75.86c27.1,10.05 32.34,13.88 66.7,8.2 -17.55,-69.5 -26.4,10.5 -29.75,-69.69 26.7,-7.01 19.46,14.85 22.56,-32.85z"/>
   <path class="fil20" d="M10281.62 9726.32c-32.11,-2.93 -22.62,9.29 -24.6,-32.79 -49.44,0.2 -37.59,1.87 -46.22,12.09 -2.58,3.06 -15.09,34.47 -16.34,39.18 1.88,1.98 6.84,12.59 7.75,14.78l17.82 55.48c16.65,22.79 44.74,17.95 66.7,9.7 -14.28,-54.59 -29.68,-3.57 -27.24,-46.61 2.78,-48.86 18.82,18.76 22.13,-51.83z"/>
   <path class="fil32" d="M9457.48 7793.74l0 98.38c0,31.58 25.19,23.24 56.52,19.54l1.76 -137.45c-31.46,-2.42 -58.28,-10.98 -58.28,19.53z"/>
   <path class="fil24" d="M1466.31 11776.75c-3.79,45.68 15.54,47.66 57.87,47.66 43.36,0 68.59,2.59 100.09,-10.52l-1.07 -36.13c-37.09,-11.82 -145.53,-10.82 -156.89,-1.01z"/>
   <path class="fil20" d="M4035.84 9964.06c-27.33,11.64 -23.55,11.59 -43.25,34.79 -15.14,17.82 -19.63,21.73 -36.28,37.24 -25.75,23.99 -46.2,44.87 -70.31,70.93l-71.59 -31.25 79.97 87.65 141.46 -199.36z"/>
   <path class="fil0" d="M3508.02 6426.74c-98.9,-17.82 -77.38,84.93 -37.32,95.03 30.43,7.68 47.85,-9.78 55.52,-31.07 9.99,-27.74 -6.85,-49.19 -18.2,-63.96z"/>
   <path class="fil0" d="M9112.25 7854.28c0.83,-3.98 57.63,-69.17 -53.44,-71.89l0 85.18c35.53,-0.77 32.95,3.24 53.44,-13.29z"/>
   <path class="fil23" d="M9380.03 7728.5l48.49 0 0 182.5 -48.5 0 0.01 -182.5zm-8.14 187.79l32.34 3 32.47 -2.48 -0.04 -196.44 -64.73 0 -0.04 195.92z"/>
   <path class="fil33" d="M6545.68 3275.92c24.43,39.73 78.22,37.32 81.32,-33.2l-65.09 3.43c-8.65,13.06 -9.76,11.3 -16.23,29.77z"/>
   <path class="fil27" d="M12315.01 6628.63c29.84,-25.3 27.43,-31.23 8.18,-63.5 -77.1,-10.08 -74.19,64.29 -8.18,63.5z"/>
   <path class="fil27" d="M12048.05 6596.87c8.76,22.51 12.92,27.07 37.38,33.3 32,-13.66 44.62,-31.13 16.39,-64.02 -36.43,-7.49 -45.52,2.4 -53.77,30.72z"/>
   <path class="fil8" d="M9517.46 7744.56l-0.69 -29.86c-88.39,-51.38 -73.2,93.93 0.69,29.86z"/>
   <polygon class="fil0" points="3697.18,6472.92 3747.99,6467.93 3747.46,6432.8 3696.74,6423.05 "/>
   <path class="fil0" d="M10679.21 7822.38c-10.54,25.42 -13.53,18.88 4.15,45.72 21.99,-0.38 33.6,3.09 32.65,-24.95 -1.11,-32.67 -20.11,-25.27 -36.8,-20.77z"/>
   <path class="fil0" d="M10499.81 7823.37c-12.12,27.3 -10.96,14.53 -0.99,40.1 50.79,19.1 55.27,-59.25 0.99,-40.1z"/>
   <path class="fil8" d="M10994.92 9795.5c4.96,-3.35 20.99,-0.83 15.95,-24.83 -4.9,-23.38 -6.33,-13.6 -27.2,-17.64 -10.03,25.24 -13.14,26.64 11.25,42.47z"/>
   <path class="fil8" d="M11142.51 9792.93c17.08,-27.06 11.86,-12.55 3.07,-34.8 -0.01,0 -20.95,-16.51 -26.13,12.51 -4.69,26.3 9.63,19.89 23.06,22.29z"/>
   <path class="fil32" d="M9345.74 9757.37l35.26 -2.81c-3,-33.21 12.73,-28.65 -30.15,-30.38l-5.11 33.19z"/>
   <path class="fil34" d="M7536.6 6064.49l-33.97 -8.81c-14.38,-0.73 -35.01,0.62 -50.26,0.62l0 -74.51c-14.28,22.82 -9.57,53.51 -3.91,78.42l88.14 4.28z"/>
   <path class="fil35" d="M10308.92 7840.2l27.33 0 -9.08 -42.98c-11.93,13.46 -16.46,21.48 -18.25,42.98z"/>
   <path class="fil36" d="M10968.92 7815.88c15.94,16.57 -21.35,12.3 38.77,14.18 -12.43,-17.24 -14.58,-25.05 -38.77,-14.18z"/>
   <path class="fil37" d="M9757.47 7816.8c13.04,14.29 -15.81,11.23 36.94,13.47 -8.67,-12.07 -9.32,-29.88 -36.94,-13.47z"/>
   <path class="fil0" d="M9260.49 7813.06c19.71,19.66 -23.26,18.46 20.2,14.78 27.14,-2.3 1.7,4.43 18.32,-11.87l-38.52 -2.91z"/>
   <path class="fil38" d="M9487.17 9790.67c5.87,6.55 2.35,38.12 23.78,-3.8l-23.78 3.8z"/>
   <polygon class="fil6" points="1016.44,891.26 1008.24,899.46 "/>
   <g>
    <path class="fil39" d="M2931.32 4624.67c0.67,-89.05 -66.96,-98.83 -90.92,-35.29 -12.1,32.09 -9.48,46.81 24.69,61.12 67.99,28.45 62.55,-21.92 66.23,-25.83zm-182.29 34.37c-63.14,-23.66 39.03,-36.59 -81.09,-6.46l-336.77 135.52c43.85,72.23 9.07,112.35 291.23,-10.74 197.48,-86.12 131.08,-97.16 126.63,-118.32zm636.64 -1528.52c-771.03,82.52 -643.06,1253.31 68.21,1165.07 807.49,-100.19 651.48,-1242.11 -68.21,-1165.07zm-1594.59 687.74c-728.72,117.21 -417.44,1240.1 198.48,1094.38 317.06,-75.03 505.7,-386.02 436.92,-641.91 -85.28,-317.21 -376.53,-494.13 -635.4,-452.47zm2046.67 -856.53c19.01,-76.82 -106,-323.55 -264.75,-253.32 24.68,102.85 48.4,74.26 117.82,157.33 70.48,84.33 44.29,123.93 146.93,95.99zm-1578.09 -239.46c-303.04,52.08 -541.13,294.21 -477.23,552.86 69.44,281.03 333.79,443.83 564.44,415.29 678.89,-84.02 536.79,-1075.34 -87.21,-968.15zm160.57 -348.42c-133.86,85.78 -1.31,106.97 -0.38,108.58l40.92 -20.28c8.39,-32.15 16.53,-9.9 -0.16,-55.5 -21.33,-58.29 -23.57,-23.35 -40.38,-32.8zm-781.24 205.59c69.12,25.45 87.7,14.56 163.46,1.47 159.88,-27.66 410.45,-84.13 482.85,-229.15 64.03,-30.09 117.41,-53.13 178.5,-47.06l116.68 41.15c-58.97,155.09 79.38,69.43 494.13,155.81 268.99,56.05 400.41,224.78 432.75,105.19 31.39,-116.02 -481.92,-229.45 -567.34,-241.53 -75.59,-10.69 -148.35,-10.52 -208.14,-36.29l152.82 -54.64c314.36,78.6 80.74,-22.2 553.33,138.24 333.33,113.16 494.89,362.8 660.94,550.89l76.82 60.56c63.46,219.74 178.59,320.25 172.63,591.5 -1.74,79.54 -34.74,203.53 -58.59,252.1 -37.22,75.84 -109.87,136.9 -134.15,206.55 -404.89,149.17 -471.06,366.17 -1065.66,639.56 -757.74,348.44 -1661.94,698.2 -2033.79,-241.38 -74.91,-189.24 -113.48,-387.43 -120.07,-581.19 -8.67,-255.63 33.77,-337.14 57.38,-520.08 18.85,-76.12 58.72,-130.51 81.72,-200.75 33.33,-101.89 28.67,-86.87 80.52,-174.71 59.68,-101.08 142.71,-212.94 249.23,-306.92 103.85,-58.01 147.67,-67.9 233.98,-109.32z"/>
    <path class="fil40" d="M2031.16 5345.38c-50.42,44.44 -28.77,-46.24 -36.51,66.8 -1.74,25.34 5.43,56.73 13.52,80.61 12.16,35.97 56.45,124.57 92.51,133.35 35,43.97 23.64,48.41 77.67,79.63 124.94,72.15 39.21,-10.69 39.31,-11.67l91.27 -158.56c51.93,-70.29 63.76,-78.3 67.6,-153.11 -62.17,-82.61 -327.07,-162.68 -345.37,-37.05zm739.48 1.57c13.1,-109.82 -13.54,-237.31 -151.66,-137.5 28.13,101.55 53.93,113.63 151.66,137.5zm740.37 -408.22c15.57,-60.44 -19.7,-186.13 -133.62,-103 1.34,95.97 23.46,99.9 78.23,182.57 40.85,-42.47 32.19,10.62 55.39,-79.57zm676.29 -195.34c59.18,-126.62 -92.74,-421.95 -244.83,-286.3 -91.69,75.67 -126.85,130.96 -133.32,228.12 64.48,65.98 106.35,72.73 195.7,88.21 192.84,33.37 103.91,69.62 183.09,54.63l-0.64 -84.66zm-1852.69 488.53l57.66 33.99 150.76 -47.2 -1.78 -55.38c139.75,-122.7 160.65,-54.68 286.25,-27.31 195.21,-121.72 201.17,-163.18 454.03,-207.57 54.54,-156.69 11.1,-270.53 273.24,-168.21 199.56,-175.03 123.05,-26.76 237.12,-261.73 59.81,-123.22 149,-171.87 286.89,-164.83 20.41,-59.45 23.76,-51.88 23.27,-116.87 -261.41,94.56 -307.26,183.7 -504.73,326.2 -422,304.53 -1288.07,614.32 -1771.79,633.59l99.5 120.04c158.41,-129.37 264.68,-101.57 409.58,-64.72zm-1341.07 -1860.78c-23.61,182.94 -66.05,264.45 -57.38,520.08 6.59,193.76 45.16,391.95 120.07,581.19 371.85,939.58 1276.05,589.82 2033.79,241.38 594.6,-273.39 660.77,-490.39 1065.66,-639.56 121.04,8.53 20.12,-26.2 22.31,31.01 6.92,180.59 -97.29,-42.11 -1.91,36.8 20.25,111.2 -22,147.47 -20.25,210.66 3.02,109.26 148.92,183.22 111.39,455.24 -12.46,90.42 -16.56,124.41 -101.28,169.6 -64.77,-143.25 -99.31,-126.19 -219.58,-143.96 -174.21,-25.76 -146.36,-68.3 -211.04,-113.2 -301.94,148.78 -24.25,196.67 -256.81,383.1 -18.6,-12.09 -132.27,-102.11 -132.59,-102.26 -139.58,-61.94 -454.29,179.93 -512.93,206.14 32.01,82.58 20.25,122.67 13.92,195.51 -171.57,68.36 -183.86,-35.55 -300.05,-115.75l-103.51 46.48c-8.35,82.79 19.53,48.09 -10.95,129.65 -48.21,128.94 -178.72,164.09 -95.82,359.35 -70.29,11.36 -26.78,19.86 -81.29,-10.28 -37.06,-31.3 25.05,-28.18 -66.69,-23.64 -68.18,-20.75 -129.94,-74.54 -180.65,-150.94 -140.57,-211.7 25.68,-115.5 -185.04,-355.09 -21.41,-24.36 -57.13,-85.47 -80.79,-107.01 -50.11,-45.59 -108.02,-22.42 -190.43,-72.51l-71.36 -24.48c-156.9,-64.5 -234.34,-120.11 -345.1,-282.32 -270.49,-396.03 -366.02,-1114.13 -221.22,-1425.56 40.11,17.92 0.47,35.21 79.53,0.37z"/>
    <path class="fil41" d="M1664.73 2329.66c-129.26,18.32 -522.89,40.04 -346.99,293.17l346.99 -293.17zm787.53 -203.22c-220.88,-61.88 -613.06,5.99 -873.54,105.32 114.43,51.58 671.51,134.38 873.54,-105.32zm552.92 -57.36c37.82,-203.38 -119.91,-440.29 -292.72,-526.9 -3.8,-1.91 -94.97,-38.12 -103.79,-40.74 -53.41,-15.72 -143.72,-26.25 -215.3,-21.99 -169.05,10.1 -358.96,76.84 -489.94,189.34 -143.6,123.36 -137.72,217.57 -166.39,407.13 229.74,-8.2 422.58,-79.1 665.36,-53.26 152.52,16.24 447.28,110.6 602.78,46.42zm1170.9 2072.96c-95.38,-78.91 8.83,143.79 1.91,-36.8 -2.19,-57.21 98.73,-22.48 -22.31,-31.01 24.28,-69.65 96.93,-130.71 134.15,-206.55 23.85,-48.57 56.85,-172.56 58.59,-252.1 5.96,-271.25 -109.17,-371.76 -172.63,-591.5 -225.67,-384.84 -457.47,-635.32 -841.29,-786.55 -38.19,-15.04 -29.72,-18.93 -71.37,-36.35 -70.47,-29.45 -210.52,-53.77 -304.91,-22.03 -58.93,-2.99 -92.17,0.46 -164.83,-11.36 -39.25,-6.38 -141.06,-27.65 -180.77,-27.08 -153.15,2.1 -32.03,88.94 -355.53,207.79 -74.2,10.75 -179.07,43.6 -235.32,19.33 -226.72,16.99 -199.1,-31.44 -498.94,200.61 -24.45,18.9 -49.19,37.07 -70.65,59.05 -5.12,5.23 -21.53,24.78 -25.05,28.91l-22.12 32.36c-106.52,93.98 -189.55,205.84 -249.23,306.92 -51.85,87.84 -47.19,72.82 -80.52,174.71 -23,70.24 -62.87,124.63 -81.72,200.75 -79.06,34.84 -39.42,17.55 -79.53,-0.37 49.53,-179.36 46.04,-190.83 133.61,-348.81 75.84,-136.82 109.58,-190.33 215.61,-311.3 -11.63,-90.81 -81.78,-106.93 -52.84,-227.78 50.54,-52.7 28.98,4.85 31.09,-77.71 49.95,-124.67 227.8,-203.13 407.08,-270.74l39.14 -207.13c92.36,-456.84 419.8,-384.11 568.38,-535.01 139.06,-141.24 146.12,-16.07 235.45,14.78 80.79,27.9 164,-19.5 357.63,138.93 235.35,192.56 210.98,359.46 238.17,536 221.53,27.25 396.58,100.65 579.31,231.76 368.15,264.13 746.45,815.91 762.43,1247.24 6.36,172.17 -10.76,164.81 -65.62,317.73 -39.78,110.82 -80.16,176.01 -187.37,263.31z"/>
    <path class="fil42" d="M2721.94 1710.42c15.15,-38.06 57.84,2.96 -20.29,-87.36 -50.48,-58.34 -203.77,-117.7 -279.27,-18.26 43.15,46.58 16.64,27.72 77.06,38.84 228.19,42.06 134.9,75.8 222.5,66.78zm283.24 358.66c-155.5,64.18 -450.26,-30.18 -602.78,-46.42 -242.78,-25.84 -435.62,45.06 -665.36,53.26 28.67,-189.56 22.79,-283.77 166.39,-407.13 130.98,-112.5 320.89,-179.24 489.94,-189.34 71.58,-4.26 161.89,6.27 215.3,21.99 8.82,2.62 99.99,38.83 103.79,40.74 172.81,86.61 330.54,323.52 292.72,526.9z"/>
    <path class="fil43" d="M3912.77 3664.34c-12.47,179.24 -22.27,305.41 -167.34,419.37 -571.3,448.71 -1059.34,-318.46 -639.98,-739.81 69.87,190.41 165.92,321.15 311.44,387.01 147.58,66.8 325.86,16.72 495.88,-66.57z"/>
    <path class="fil44" d="M1541.05 4632.63c278.15,-170.38 441.19,-417.15 244.66,-720.12 439.93,-82.56 640.57,404.94 529.5,643.19 -60.63,130.02 -217.41,259.5 -402.28,280.79 -196.9,22.71 -230.07,-61.67 -371.88,-203.86z"/>
    <path class="fil45" d="M2563.59 2887.01c229.61,80.59 184.02,585.91 -115.25,691.31 -157.41,55.43 -316.49,14.71 -398.4,-52.07 -121.22,-98.88 -198.48,-206.69 -185.81,-364.88 124.19,61.76 239.34,128.66 428.38,53.97 193.49,-76.41 231.74,-208.09 271.08,-328.33z"/>
    <path class="fil46" d="M3912.77 3664.34c-170.02,83.29 -348.3,133.37 -495.88,66.57 -145.52,-65.86 -241.57,-196.6 -311.44,-387.01 152.26,-120.18 345.46,-171.47 505.24,-103.11 191.39,81.85 240.84,202.66 302.08,423.55z"/>
    <path class="fil47" d="M3105.45 3343.9c-419.36,421.35 68.68,1188.52 639.98,739.81 145.07,-113.96 154.87,-240.13 167.34,-419.37 -61.24,-220.89 -110.69,-341.7 -302.08,-423.55 -159.78,-68.36 -352.98,-17.07 -505.24,103.11zm280.22 -213.38c719.69,-77.04 875.7,1064.88 68.21,1165.07 -711.27,88.24 -839.24,-1082.55 -68.21,-1165.07z"/>
    <path class="fil48" d="M2541.25 5163.33l-206.64 68.59c-144.9,-36.85 -251.17,-64.65 -409.58,64.72l-99.5 -120.04c483.72,-19.27 1349.79,-329.06 1771.79,-633.59 197.47,-142.5 243.32,-231.64 504.73,-326.2 0.49,64.99 -2.86,57.42 -23.27,116.87 -137.89,-7.04 -227.08,41.61 -286.89,164.83 -114.07,234.97 -37.56,86.7 -237.12,261.73 -262.14,-102.32 -218.7,11.52 -273.24,168.21 -252.86,44.39 -258.82,85.85 -454.03,207.57 -125.6,-27.37 -146.5,-95.39 -286.25,27.31z"/>
    <path class="fil47" d="M1785.71 3912.51c-366.37,58.61 -380.44,417.39 -244.66,720.12 141.81,142.19 174.98,226.57 371.88,203.86 184.87,-21.29 341.65,-150.77 402.28,-280.79 111.07,-238.25 -89.57,-725.75 -529.5,-643.19zm5.37 -94.25c258.87,-41.66 550.12,135.26 635.4,452.47 68.78,255.89 -119.86,566.88 -436.92,641.91 -615.92,145.72 -927.2,-977.17 -198.48,-1094.38z"/>
    <path class="fil47" d="M2563.59 2887.01c-48,-56.88 0.68,-21.05 -82.21,-60.07 -97.53,-45.89 -223.15,-27.4 -326.82,16.49 -163.86,69.36 -292.85,194.69 -290.43,317.94 -12.67,158.19 64.59,266 185.81,364.88 81.91,66.78 240.99,107.5 398.4,52.07 299.27,-105.4 344.86,-610.72 115.25,-691.31zm-303.93 -164.74c624,-107.19 766.1,884.13 87.21,968.15 -230.65,28.54 -495,-134.26 -564.44,-415.29 -63.9,-258.65 174.19,-500.78 477.23,-552.86z"/>
    <path class="fil49" d="M2563.59 2887.01c-39.34,120.24 -77.59,251.92 -271.08,328.33 -189.04,74.69 -304.19,7.79 -428.38,-53.97 -2.42,-123.25 126.57,-248.58 290.43,-317.94 103.67,-43.89 229.29,-62.38 326.82,-16.49 82.89,39.02 34.21,3.19 82.21,60.07z"/>
    <path class="fil50" d="M1785.71 3912.51c196.53,302.97 33.49,549.74 -244.66,720.12 -135.78,-302.73 -121.71,-661.51 244.66,-720.12z"/>
    <path class="fil51" d="M4175.79 3024.08l-76.82 -60.56c-166.05,-188.09 -327.61,-437.73 -660.94,-550.89 -472.59,-160.44 -238.97,-59.64 -553.33,-138.24 74.15,-55.08 50.6,-22.32 73.52,-95.24 94.39,-31.74 234.44,-7.42 304.91,22.03 41.65,17.42 33.18,21.31 71.37,36.35 383.82,151.23 615.62,401.71 841.29,786.55z"/>
    <path class="fil52" d="M2731.88 2329.03c59.79,25.77 132.55,25.6 208.14,36.29 85.42,12.08 598.73,125.51 567.34,241.53 -32.34,119.59 -163.76,-49.14 -432.75,-105.19 -414.75,-86.38 -553.1,-0.72 -494.13,-155.81l151.4 -16.82z"/>
    <path class="fil53" d="M2452.26 2126.44c-202.03,239.7 -759.11,156.9 -873.54,105.32 260.48,-99.33 652.66,-167.2 873.54,-105.32z"/>
    <path class="fil54" d="M2958.22 2179.15c-22.92,72.92 0.63,40.16 -73.52,95.24l-152.82 54.64 -151.4 16.82 -116.68 -41.15c-61.09,-6.07 -114.47,16.97 -178.5,47.06l-28.21 -3.26c323.5,-118.85 202.38,-205.69 355.53,-207.79 39.71,-0.57 141.52,20.7 180.77,27.08 72.66,11.82 105.9,8.37 164.83,11.36z"/>
    <path class="fil55" d="M2257.09 2348.5l28.21 3.26c-72.4,145.02 -322.97,201.49 -482.85,229.15 -75.76,13.09 -94.34,23.98 -163.46,-1.47 67.05,-104.99 231.35,-101.64 349.74,-178.99 5.53,-3.61 15.97,-5.87 16.79,-15.69 0.82,-10.02 11.05,-11.08 16.25,-16.93 56.25,24.27 161.12,-8.58 235.32,-19.33z"/>
    <path class="fil56" d="M4187.3 4743.39c-158.2,4.07 -358.7,-80.4 -178.7,-271.62l-66.13 -14.68c152.09,-135.65 304.01,159.68 244.83,286.3z"/>
    <path class="fil57" d="M4187.3 4743.39l0.64 84.66c-79.18,14.99 9.75,-21.26 -183.09,-54.63 -89.35,-15.48 -131.22,-22.23 -195.7,-88.21 6.47,-97.16 41.63,-152.45 133.32,-228.12l66.13 14.68c-180,191.22 20.5,275.69 178.7,271.62z"/>
    <path class="fil57" d="M2217.66 5694.1l-45.64 -21.7c5,-10.64 6.76,-25.83 10.91,-22.73 10.59,7.84 12.05,-25.47 16.43,-34.7 47.21,-99.87 136.08,-256.28 -141.02,-275.2l-27.18 5.61c18.3,-125.63 283.2,-45.56 345.37,37.05 -3.84,74.81 -15.67,82.82 -67.6,153.11l-91.27 158.56z"/>
    <path class="fil58" d="M1664.73 2329.66l-346.99 293.17c-175.9,-253.13 217.73,-274.85 346.99,-293.17z"/>
    <path class="fil59" d="M2021.77 2367.83c-5.2,5.85 -15.43,6.91 -16.25,16.93 -0.82,9.82 -11.26,12.08 -16.79,15.69 -118.39,77.35 -282.69,74 -349.74,178.99 -86.31,41.42 -130.13,51.31 -233.98,109.32l22.12 -32.36c3.52,-4.13 19.93,-23.68 25.05,-28.91 21.46,-21.98 46.2,-40.15 70.65,-59.05 299.84,-232.05 272.22,-183.62 498.94,-200.61z"/>
    <path class="fil52" d="M2749.03 4659.04c4.45,21.16 70.85,32.2 -126.63,118.32 -282.16,123.09 -247.38,82.97 -291.23,10.74l336.77 -135.52c120.12,-30.13 17.95,-17.2 81.09,6.46z"/>
    <path class="fil52" d="M3837.75 2961.73c-102.64,27.94 -76.45,-11.66 -146.93,-95.99 -69.42,-83.07 -93.14,-54.48 -117.82,-157.33 158.75,-70.23 283.76,176.5 264.75,253.32z"/>
    <path class="fil60" d="M2100.68 5626.14c-36.06,-8.78 -80.35,-97.38 -92.51,-133.35 -8.09,-23.88 -15.26,-55.27 -13.52,-80.61 7.74,-113.04 -13.91,-22.36 36.51,-66.8l27.18 -5.61c1.7,47.27 -11.45,31.85 38.42,-0.99 34.3,103.74 75.19,150.7 98.48,221.27l-88.38 54.47c-1.04,1.59 -3.29,8.32 -6.18,11.62z"/>
    <path class="fil61" d="M2217.66 5694.1c-0.1,0.98 85.63,83.82 -39.31,11.67 -54.03,-31.22 -42.67,-35.66 -77.67,-79.63 2.89,-3.3 5.14,-10.03 6.18,-11.62l88.38 -54.47c-23.29,-70.57 -64.18,-117.53 -98.48,-221.27 -49.87,32.84 -36.72,48.26 -38.42,0.99 277.1,18.92 188.23,175.33 141.02,275.2 -4.38,9.23 -5.84,42.54 -16.43,34.7 -4.15,-3.1 -5.91,12.09 -10.91,22.73l45.64 21.7z"/>
    <path class="fil62" d="M2721.94 1710.42c-87.6,9.02 5.69,-24.72 -222.5,-66.78 -60.42,-11.12 -33.91,7.74 -77.06,-38.84 75.5,-99.44 228.79,-40.08 279.27,18.26 78.13,90.32 35.44,49.3 20.29,87.36z"/>
    <path class="fil61" d="M3455.62 5018.3c-54.77,-82.67 -76.89,-86.6 -78.23,-182.57 113.92,-83.13 149.19,42.56 133.62,103 -23.2,90.19 -14.54,37.1 -55.39,79.57z"/>
    <path class="fil60" d="M2770.64 5346.95c-97.73,-23.87 -123.53,-35.95 -151.66,-137.5 138.12,-99.81 164.76,27.68 151.66,137.5z"/>
    <polygon class="fil63" points="2334.61,5231.92 2541.25,5163.33 2543.03,5218.71 2392.27,5265.91 "/>
    <path class="fil62" d="M2460.77 2462.15l-40.92 20.28c-0.93,-1.61 -133.48,-22.8 0.38,-108.58 16.81,9.45 19.05,-25.49 40.38,32.8 16.69,45.6 8.55,23.35 0.16,55.5z"/>
    <path class="fil62" d="M2840.4 4589.38c23.96,-63.54 91.59,-53.76 90.92,35.29 -3.68,3.91 1.76,54.28 -66.23,25.83 -34.17,-14.31 -36.79,-29.03 -24.69,-61.12z"/>
    <path class="fil64" d="M2255.29 5812.32c-69.55,3.97 -17.85,23.47 -66.69,-23.64 91.74,-4.54 29.63,-7.66 66.69,23.64z"/>
    <path class="fil64" d="M1210.39 2482.88c11.01,-69 -5.81,-24.08 31.09,-77.71 -2.11,82.56 19.45,25.01 -31.09,77.71z"/>
    <polygon class="fil65" points="1551.69,5103.13 1480.33,5078.65 "/>
   </g>
   <g>
    <path class="fil39" d="M13455.99 11825.63c19.48,-46.09 -13.54,-65.69 -39.62,-37.85 -13.17,14.07 -14.97,22.27 -0.31,37.04 29.19,29.36 37.18,2.05 39.93,0.81zm-102.02 -21.29c-27.7,-25.85 28.13,-10.62 -40.71,-20.77l-203.94 -1.94c7.25,46.92 -19.43,60.28 153.5,56.95 121.02,-2.32 88.92,-22.3 91.15,-34.24zm658.8 -656.89c-418.02,-122.69 -603.02,512.63 -214.81,619.52 440.75,121.34 605,-505.01 214.81,-619.52zm-975.57 14.72c-403.5,-95.6 -483.05,554.2 -131.99,610.78 180.73,29.11 345.45,-91.84 364.7,-239.46 23.85,-183 -89.36,-337.37 -232.71,-371.32zm1246.53 -5.29c26.36,-35.81 14.45,-190.74 -83.05,-188.36 -9.27,58.7 9.19,48.95 27.38,106.98 18.48,58.91 -3.62,73.85 55.67,81.38zm-767.87 -463.12c-168.51,-38.02 -344.13,36.57 -366.5,184.57 -24.3,160.81 77.97,302.09 203.85,336.79 370.5,102.12 509.63,-443.05 162.65,-521.36zm158.19 -146.42c-87.92,15.8 -23.65,55.26 -23.51,56.29l25.59 -1.74c11.27,-14.89 10.71,-1.59 11.84,-28.85 1.45,-34.84 -7.22,-17.18 -13.92,-25.7zm-449.75 -60.98c30.42,28.05 42.41,26.39 84.55,35.86 88.94,19.96 231.16,44.43 299.89,-15.31 39.71,-1.88 72.37,-2.38 102.78,13.89l51.74 46.41c-63.92,67.86 26.3,53.09 223.08,186.98 127.61,86.84 159.6,202.66 202.08,147.51 41.21,-53.49 -200.92,-222.58 -242.68,-247.19 -36.95,-21.78 -74.75,-37.31 -100.26,-63.53l91.07 4.45c146.32,108.29 46.69,5.8 257.59,190.56 148.75,130.3 179.01,294.6 224.82,427.9l26.88 47.93c-14.25,127.71 23.94,204.6 -37.41,344.15 -17.99,40.92 -61.75,98.21 -84.56,118.3 -35.62,31.39 -86.45,47.49 -114.01,78.44 -242.24,-9.48 -323.2,88.97 -690.61,103.26 -468.24,18.22 -1012.78,5.69 -1004.05,-561.95 1.75,-114.33 24.29,-225.5 62.49,-327.51 50.4,-134.58 89.94,-167.78 141.48,-257.7 26.13,-35.47 58.52,-55.14 85.54,-86.67 39.19,-45.75 33.54,-38.95 79.33,-73.42 52.69,-39.67 119.82,-79.91 195.31,-105.84 66.37,-7.82 91.25,-3.54 144.95,-6.52z"/>
    <path class="fil40" d="M12833.87 12006.54c-35.71,12.25 -5,-30.18 -33.29,26.85 -6.35,12.78 -9.37,30.62 -10.3,44.75 -1.41,21.28 2.55,76.79 19.39,89.09 8.73,30.34 1.88,30.21 23.22,58.02 49.37,64.28 22.65,2.87 22.92,2.38l81.43 -62.72c42.06,-25.35 49.92,-26.97 67.98,-64.99 -14.53,-56.23 -134.86,-154.67 -171.35,-93.38zm383.58 159.58c30.39,-54.21 43.94,-126.12 -49.2,-103.95 -7.21,58.76 3.59,70.57 49.2,103.95zm472.05 -52.99c21.06,-28.04 29.75,-100.86 -47.25,-82.17 -19.92,50.12 -9.27,56.91 1.41,111.59 30.32,-13.28 14.43,12.42 45.84,-29.42zm393.06 43.77c57.92,-53.03 42.48,-238.97 -65.62,-201.2 -63.85,19.6 -93.98,40.76 -118.21,89.81 19.31,48.1 39.6,60.6 82.66,87.82 92.95,58.72 39,58.45 83.32,67.67l17.85 -44.1zm-1066.78 -144.12l22.64 30.03 88.4 7.86 10.98 -29.13c98.9,-33.7 95.14,6.1 154.47,47.27 127.49,-21.28 139.49,-41.52 280.3,-10.28 61.97,-69.64 63.86,-138.08 177.99,-28.67 141.19,-48.03 69.63,12.52 179.31,-84.98 57.52,-51.13 114.27,-57.24 184.35,-23.98 23.36,-26.49 23.47,-21.84 37.18,-55.68 -156.03,-7.03 -198.98,29.41 -332.1,60.99 -284.49,67.51 -800.66,42.41 -1055.94,-51.44l25.88 83.68c110.03,-33.15 159.23,4.1 226.54,54.33zm-296.61 -1253.97c-51.54,89.92 -91.08,123.12 -141.48,257.7 -38.2,102.01 -60.74,213.18 -62.49,327.51 -8.73,567.64 535.81,580.17 1004.05,561.95 367.41,-14.29 448.37,-112.74 690.61,-103.26 61.01,30.41 16.07,-9.29 4.92,20.88 -35.19,95.25 -41.46,-42.74 -8.89,18.7 -13.37,62.08 -43.09,71.84 -55.76,105.02 -21.9,57.38 37.97,127.1 -39.94,260.26 -25.89,44.27 -35.31,61.04 -89.01,66.31 -2.86,-88.28 -24.45,-86.83 -83.07,-121.88 -84.91,-50.77 -61.32,-66.88 -85.26,-104.08 -188.71,12.42 -54.83,96.9 -215.6,143.76 -7.06,-10.27 -46.74,-81.41 -46.88,-81.55 -59.16,-62.12 -274.5,-4.12 -310.57,-3.1 -1.12,49.75 -15.83,68.04 -34.76,104.49 -103.76,-1.34 -87.82,-57.93 -130.92,-124.51l-63.72 1.91c-22.12,41.19 -0.19,29.16 -33.53,64.96 -52.72,56.59 -128.02,46.82 -126.92,165.99 -38.93,-9.19 -18.17,4.56 -39.99,-22.79 -12.53,-24.2 19.05,-9.25 -29.55,-26.59 -30.95,-25.41 -51.46,-66.59 -61.38,-117.14 -27.51,-140.09 38.14,-54.45 -19.8,-224.08 -5.88,-17.24 -11.3,-56.64 -18.96,-72.9 -16.22,-34.43 -51.27,-34.83 -83.3,-78.53l-31.78 -28.03c-67.61,-67.17 -95.87,-112.67 -118.54,-220.66 -55.37,-263.68 49.25,-657 191.31,-787.6 16.98,17.91 -7.31,18.38 41.21,17.26z"/>
    <path class="fil41" d="M13291.31 10362.21c-71.04,-18.24 -280.07,-91.47 -243.11,77.71l243.11 -77.71zm452.5 63.56c-101.38,-79.54 -319.56,-128.5 -476.13,-132.85 48.33,51.34 319.77,213.93 476.13,132.85zm299.39 88.93c63.31,-97.47 32.3,-254.33 -38.82,-336.39 -1.56,-1.81 -41.12,-40.18 -45.13,-43.44 -24.36,-19.63 -68.98,-44.48 -107.06,-57.64 -89.93,-31.04 -202.86,-37.17 -295.02,-6.88 -101.05,33.22 -118.23,83.39 -173.83,175.65 121.04,45.06 236.39,49.65 356.88,115.19 75.69,41.18 208.46,153.45 302.98,153.51zm162.69 1327.59c-32.57,-61.44 -26.3,76.55 8.89,-18.7 11.15,-30.17 56.09,9.53 -4.92,-20.88 27.56,-30.95 78.39,-47.05 114.01,-78.44 22.81,-20.09 66.57,-77.38 84.56,-118.3 61.35,-139.55 23.16,-216.44 37.41,-344.15 -34.51,-248.25 -101.06,-428.05 -267.85,-588.97 -16.6,-16.01 -11.36,-16.21 -29.24,-34.19 -30.27,-30.42 -97.75,-73.11 -153.57,-76.9 -29.96,-14.2 -47.95,-19.55 -83.14,-41.28 -19.01,-11.74 -67.29,-44.64 -88.03,-52.87 -79.96,-31.79 -35.74,39.3 -229.21,31.55 -40.83,-10.35 -102.33,-15.81 -126.32,-40.49 -121.36,-39.85 -96.62,-59.06 -302.12,-2.96 -16.76,4.56 -33.5,8.69 -49.36,15.49 -3.79,1.62 -16.5,8.24 -19.22,9.63l-18.43 12.05c-75.49,25.93 -142.62,66.17 -195.31,105.84 -45.79,34.47 -40.14,27.67 -79.33,73.42 -27.02,31.53 -59.41,51.2 -85.54,86.67 -48.52,1.12 -24.23,0.65 -41.21,-17.26 64.24,-82.48 64.89,-89.19 144.28,-152.41 68.76,-54.75 97.77,-75.28 178.8,-115.33 13.46,-49.64 -19.49,-73.07 21.48,-129.6 37.56,-16.51 14.01,8.74 32.84,-33.66 52.7,-54.01 161.88,-56.56 269.48,-53.17l64.81 -99.14c146.06,-217.35 300.44,-109.29 409.98,-155.73 102.53,-43.48 79.32,23.02 119.07,58.22 35.95,31.83 89.33,25.08 155.84,148.91 80.82,150.49 32.33,231.91 8.53,329.4 109.16,61.71 184.27,137.4 250.99,244.7 134.4,216.16 212.3,583.85 127.96,811.21 -33.67,90.75 -40.98,83.25 -102.31,150.86 -44.45,49 -79.41,74.17 -153.82,96.48z"/>
    <path class="fil42" d="M13973.17 10267.69c16.04,-16.51 29.39,13.95 8.23,-49.71 -13.68,-41.13 -80.51,-104.86 -141.07,-69.44 12.4,33.45 2.69,17.96 31.67,36.71 109.44,70.82 53.75,68.31 101.17,82.44zm70.03 247.01c-94.52,-0.06 -227.29,-112.33 -302.98,-153.51 -120.49,-65.54 -235.84,-70.13 -356.88,-115.19 55.6,-92.26 72.78,-142.43 173.83,-175.65 92.16,-30.29 205.09,-24.16 295.02,6.88 38.08,13.16 82.7,38.01 107.06,57.64 4.01,3.26 43.57,41.63 45.13,43.44 71.12,82.06 102.13,238.92 38.82,336.39z"/>
    <path class="fil43" d="M14171.78 11537.76c-44.97,90.38 -77.16,153.78 -176.94,181.79 -392.97,110.31 -481.59,-392.76 -173.38,-521.48 -4.62,113.86 17.17,202.35 78.57,267.79 62.28,66.36 165.59,78.63 271.75,71.9z"/>
    <path class="fil44" d="M12732.5 11531.28c180.99,-28.73 318.64,-121.85 281.68,-321.33 246.13,51.58 245.59,347.75 136.76,447.6 -59.4,54.48 -168.61,88.04 -269.16,59.41 -107.1,-30.48 -106.2,-81.41 -149.28,-185.68z"/>
    <path class="fil45" d="M13638.27 10844.54c101.9,91.14 -30.3,343.69 -208.31,334.16 -93.62,-5.01 -167.46,-60.3 -195.65,-112.56 -41.7,-77.36 -58.65,-149.92 -18.1,-229.33 51.21,58.73 96.63,118.18 210.81,119.99 116.86,1.87 165,-58.28 211.25,-112.26z"/>
    <path class="fil46" d="M14171.78 11537.76c-106.16,6.73 -209.47,-5.54 -271.75,-71.9 -61.4,-65.44 -83.19,-153.93 -78.57,-267.79 104.86,-29.7 216.18,-14.86 284.45,54.94 81.79,83.58 81.51,156.92 65.87,284.75z"/>
    <path class="fil47" d="M13821.46 11198.07c-308.21,128.72 -219.59,631.79 173.38,521.48 99.78,-28.01 131.97,-91.41 176.94,-181.79 15.64,-127.83 15.92,-201.17 -65.87,-284.75 -68.27,-69.8 -179.59,-84.64 -284.45,-54.94zm191.31 -50.62c390.19,114.51 225.94,740.86 -214.81,619.52 -388.21,-106.89 -203.21,-742.21 214.81,-619.52z"/>
    <path class="fil48" d="M13137.8 12021.54l-122.02 -8.76c-67.31,-50.23 -116.51,-87.48 -226.54,-54.33l-25.88 -83.68c255.28,93.85 771.45,118.95 1055.94,51.44 133.12,-31.58 176.07,-68.02 332.1,-60.99 -13.71,33.84 -13.82,29.19 -37.18,55.68 -70.08,-33.26 -126.83,-27.15 -184.35,23.98 -109.68,97.5 -38.12,36.95 -179.31,84.98 -114.13,-109.41 -116.02,-40.97 -177.99,28.67 -140.81,-31.24 -152.81,-11 -280.3,10.28 -59.33,-41.17 -55.57,-80.97 -154.47,-47.27z"/>
    <path class="fil47" d="M13014.18 11209.95c-202.8,-48.23 -287.16,135.02 -281.68,321.33 43.08,104.27 42.18,155.2 149.28,185.68 100.55,28.63 209.76,-4.93 269.16,-59.41 108.83,-99.85 109.37,-396.02 -136.76,-447.6zm23.02 -47.78c143.35,33.95 256.56,188.32 232.71,371.32 -19.25,147.62 -183.97,268.57 -364.7,239.46 -351.06,-56.58 -271.51,-706.38 131.99,-610.78z"/>
    <path class="fil47" d="M13638.27 10844.54c-12.7,-39.84 4.87,-10.79 -29.78,-48.84 -40.78,-44.76 -109.97,-62.13 -173.21,-61.6 -99.97,0.83 -193.86,38.21 -219.07,102.71 -40.55,79.41 -23.6,151.97 18.1,229.33 28.19,52.26 102.03,107.55 195.65,112.56 178.01,9.53 310.21,-243.02 208.31,-334.16zm-122.41 -150.78c346.98,78.31 207.85,623.48 -162.65,521.36 -125.88,-34.7 -228.15,-175.98 -203.85,-336.79 22.37,-148 197.99,-222.59 366.5,-184.57z"/>
    <path class="fil49" d="M13638.27 10844.54c-46.25,53.98 -94.39,114.13 -211.25,112.26 -114.18,-1.81 -159.6,-61.26 -210.81,-119.99 25.21,-64.5 119.1,-101.88 219.07,-102.71 63.24,-0.53 132.43,16.84 173.21,61.6 34.65,38.05 17.08,9 29.78,48.84z"/>
    <path class="fil50" d="M13014.18 11209.95c36.96,199.48 -100.69,292.6 -281.68,321.33 -5.48,-186.31 78.88,-369.56 281.68,-321.33z"/>
    <path class="fil51" d="M14445.84 11261.82l-26.88 -47.93c-45.81,-133.3 -76.07,-297.6 -224.82,-427.9 -210.9,-184.76 -111.27,-82.27 -257.59,-190.56 50.33,-12.68 31.06,-0.73 58.63,-33.67 55.82,3.79 123.3,46.48 153.57,76.9 17.88,17.98 12.64,18.18 29.24,34.19 166.79,160.92 233.34,340.72 267.85,588.97z"/>
    <path class="fil52" d="M13845.48 10590.98c25.51,26.22 63.31,41.75 100.26,63.53 41.76,24.61 283.89,193.7 242.68,247.19 -42.48,55.15 -74.47,-60.67 -202.08,-147.51 -196.78,-133.89 -287,-119.12 -223.08,-186.98l82.22 23.77z"/>
    <path class="fil53" d="M13743.81 10425.77c-156.36,81.08 -427.8,-81.51 -476.13,-132.85 156.57,4.35 374.75,53.31 476.13,132.85z"/>
    <path class="fil54" d="M13995.18 10561.76c-27.57,32.94 -8.3,20.99 -58.63,33.67l-91.07 -4.45 -82.22 -23.77 -51.74 -46.41c-30.41,-16.27 -63.07,-15.77 -102.78,-13.89l-13.94 -7.75c193.47,7.75 149.25,-63.34 229.21,-31.55 20.74,8.23 69.02,41.13 88.03,52.87 35.19,21.73 53.18,27.08 83.14,41.28z"/>
    <path class="fil55" d="M13594.8 10499.16l13.94 7.75c-68.73,59.74 -210.95,35.27 -299.89,15.31 -42.14,-9.47 -54.13,-7.81 -84.55,-35.86 57.36,-40.11 141.94,-3.1 220.02,-17.84 3.64,-0.69 9.55,0.38 12.08,-4.54 2.58,-5.03 8.12,-3.38 12.08,-5.31 23.99,24.68 85.49,30.14 126.32,40.49z"/>
    <path class="fil56" d="M14082.56 12156.9c-83,-31.85 -168.95,-118.74 -34.44,-179.38l-31.18 -21.82c108.1,-37.77 123.54,148.17 65.62,201.2z"/>
    <path class="fil57" d="M14082.56 12156.9l-17.85 44.1c-44.32,-9.22 9.63,-8.95 -83.32,-67.67 -43.06,-27.22 -63.35,-39.72 -82.66,-87.82 24.23,-49.05 54.36,-70.21 118.21,-89.81l31.18 21.82c-134.51,60.64 -48.56,147.53 34.44,179.38z"/>
    <path class="fil57" d="M12855.81 12227.63l-19.04 -21.06c4.88,-4.45 9.06,-11.96 10.55,-9.46 3.81,6.34 11.72,-10.64 15.98,-14.49 45.96,-41.72 125.69,-103.84 -14.11,-173.15l-15.32 -2.93c36.49,-61.29 156.82,37.15 171.35,93.38 -18.06,38.02 -25.92,39.64 -67.98,64.99l-81.43 62.72z"/>
    <path class="fil58" d="M13291.31 10362.21l-243.11 77.71c-36.96,-169.18 172.07,-95.95 243.11,-77.71z"/>
    <path class="fil59" d="M13468.48 10458.67c-3.96,1.93 -9.5,0.28 -12.08,5.31 -2.53,4.92 -8.44,3.85 -12.08,4.54 -78.08,14.74 -162.66,-22.27 -220.02,17.84 -53.7,2.98 -78.58,-1.3 -144.95,6.52l18.43 -12.05c2.72,-1.39 15.43,-8.01 19.22,-9.63 15.86,-6.8 32.6,-10.93 49.36,-15.49 205.5,-56.1 180.76,-36.89 302.12,2.96z"/>
    <path class="fil52" d="M13353.97 11804.34c-2.23,11.94 29.87,31.92 -91.15,34.24 -172.93,3.33 -146.25,-10.03 -153.5,-56.95l203.94 1.94c68.84,10.15 13.01,-5.08 40.71,20.77z"/>
    <path class="fil52" d="M14283.73 11156.88c-59.29,-7.53 -37.19,-22.47 -55.67,-81.38 -18.19,-58.03 -36.65,-48.28 -27.38,-106.98 97.5,-2.38 109.41,152.55 83.05,188.36z"/>
    <path class="fil60" d="M12809.67 12167.23c-16.84,-12.3 -20.8,-67.81 -19.39,-89.09 0.93,-14.13 3.95,-31.97 10.3,-44.75 28.29,-57.03 -2.42,-14.6 33.29,-26.85l15.32 2.93c-9.27,24.9 -12.78,14.07 20.16,7.73 -4.47,61.23 6.67,94.38 3.61,136.02l-57.59 9.31c-0.88,0.6 -3.49,3.61 -5.7,4.7z"/>
    <path class="fil61" d="M12855.81 12227.63c-0.27,0.49 26.45,61.9 -22.92,-2.38 -21.34,-27.81 -14.49,-27.68 -23.22,-58.02 2.21,-1.09 4.82,-4.1 5.7,-4.7l57.59 -9.31c3.06,-41.64 -8.08,-74.79 -3.61,-136.02 -32.94,6.34 -29.43,17.17 -20.16,-7.73 139.8,69.31 60.07,131.43 14.11,173.15 -4.26,3.85 -12.17,20.83 -15.98,14.49 -1.49,-2.5 -5.67,5.01 -10.55,9.46l19.04 21.06z"/>
    <path class="fil62" d="M13973.17 10267.69c-47.42,-14.13 8.27,-11.62 -101.17,-82.44 -28.98,-18.75 -19.27,-3.26 -31.67,-36.71 60.56,-35.42 127.39,28.31 141.07,69.44 21.16,63.66 7.81,33.2 -8.23,49.71z"/>
    <path class="fil61" d="M13643.66 12142.55c-10.68,-54.68 -21.33,-61.47 -1.41,-111.59 77,-18.69 68.31,54.13 47.25,82.17 -31.41,41.84 -15.52,16.14 -45.84,29.42z"/>
    <path class="fil60" d="M13217.45 12166.12c-45.61,-33.38 -56.41,-45.19 -49.2,-103.95 93.14,-22.17 79.59,49.74 49.2,103.95z"/>
    <polygon class="fil63" points="13015.78,12012.78 13137.8,12021.54 13126.82,12050.67 13038.42,12042.81 "/>
    <path class="fil62" d="M13676.13 10601.89l-25.59 1.74c-0.14,-1.03 -64.41,-40.49 23.51,-56.29 6.7,8.52 15.37,-9.14 13.92,25.7 -1.13,27.26 -0.57,13.96 -11.84,28.85z"/>
    <path class="fil62" d="M13416.37 11787.78c26.08,-27.84 59.1,-8.24 39.62,37.85 -2.75,1.24 -10.74,28.55 -39.93,-0.81 -14.66,-14.77 -12.86,-22.97 0.31,-37.04z"/>
    <path class="fil64" d="M12849.96 12297.08c-36.97,-12.87 -14.32,8.36 -29.55,-26.59 48.6,17.34 17.02,2.39 29.55,26.59z"/>
    <path class="fil64" d="M13022.52 10344.21c20.54,-33.46 2.16,-13.74 32.84,-33.66 -18.83,42.4 4.72,17.15 -32.84,33.66z"/>
    <polygon class="fil65" points="12636.97,11777.84 12605.19,11749.81 "/>
   </g>
  </g>
 </g>
</svg>
